<svg width="37" height="37" viewBox="0 0 37 37" fill="none" xmlns="http://www.w3.org/2000/svg">
<path d="M1.04297 11.1644C1.04297 7.95677 3.6433 5.35645 6.85097 5.35645H30.083C33.2906 5.35645 35.891 7.95678 35.891 11.1644V26.7404C35.891 31.7707 31.8132 35.8484 26.783 35.8484H10.151C5.12075 35.8484 1.04297 31.7707 1.04297 26.7404V11.1644Z" fill="#E6E6E6" stroke="#E6E6E6" stroke-width="1.1"/>
<rect x="9.75537" y="1" width="17.424" height="13.068" rx="5.808" fill="#E6E6E6" stroke="#E6E6E6" stroke-width="1.1"/>
<path d="M18.461 25.9059V21.8538" stroke="#3A3B49" stroke-opacity="0.3" stroke-width="0.99" stroke-linecap="round" stroke-linejoin="round"/>
<path fill-rule="evenodd" clip-rule="evenodd" d="M28.3551 7.78369C31.0544 7.78369 33.2266 9.97186 33.2266 12.6711V18.1655C29.2975 20.4655 24.1066 21.855 18.4525 21.855C12.7984 21.855 7.62345 20.4655 3.69434 18.1655V12.6552C3.69434 9.95588 5.8825 7.78369 8.58177 7.78369H28.3551Z" stroke="#3A3B49" stroke-opacity="0.3" stroke-linecap="round" stroke-linejoin="round"/>
<path d="M24.0508 7.77625V7.19168C24.0508 5.24309 22.4695 3.66187 20.5209 3.66187H16.4002C14.4516 3.66187 12.8704 5.24309 12.8704 7.19168V7.77625" stroke="#3A3B49" stroke-opacity="0.3" stroke-linecap="round" stroke-linejoin="round"/>
<path d="M3.94824 18.4357L4.24587 25.051C4.44744 29.5096 6.66626 32.9557 9.33547 32.9557H27.601C30.2702 32.9557 32.489 29.5096 32.6906 25.051L32.9882 18.4357" stroke="#3A3B49" stroke-opacity="0.3" stroke-linecap="round" stroke-linejoin="round"/>
</svg>
