<svg width="36" height="36" viewBox="0 0 36 36" fill="none" xmlns="http://www.w3.org/2000/svg">
<path d="M15.9998 25.2612V21.3882C15.9998 20.2837 16.8953 19.3884 17.9998 19.3882C19.1043 19.3882 19.9998 20.2836 19.9998 21.3882V25.2612L19.99 25.4653C19.8877 26.474 19.0354 27.2612 17.9998 27.2612C16.8953 27.2611 15.9998 26.3657 15.9998 25.2612Z" fill="#E6E6E6" stroke="#E6E6E6" stroke-width="4" stroke-linecap="round" stroke-linejoin="round"/>
<path d="M27.3809 5.93958C31.0683 5.93958 34 8.95073 34 12.6115V17.8624C34 18.5701 33.6261 19.2254 33.0166 19.5851C28.9476 21.9863 23.6664 23.3888 17.9922 23.3888C12.317 23.3887 7.05152 21.9857 2.9834 19.5851C2.37394 19.2254 2 18.5701 2 17.8624V12.5958C2 8.918 4.96334 5.93962 8.63379 5.93958H27.3809Z" fill="#E6E6E6" stroke="#E6E6E6" stroke-width="4" stroke-linecap="round" stroke-linejoin="round"/>
<mask id="path-3-outside-1_320_6467" maskUnits="userSpaceOnUse" x="8.69971" y="0" width="19" height="12" fill="black">
<rect fill="white" x="8.69971" width="19" height="12"/>
<path fill-rule="evenodd" clip-rule="evenodd" d="M23.3001 7.93257V7.37382C23.3001 5.51135 21.8009 4 19.9534 4H16.0464C14.1989 4 12.6997 5.51135 12.6997 7.37382V7.93257"/>
</mask>
<path fill-rule="evenodd" clip-rule="evenodd" d="M23.3001 7.93257V7.37382C23.3001 5.51135 21.8009 4 19.9534 4H16.0464C14.1989 4 12.6997 5.51135 12.6997 7.37382V7.93257" fill="#E6E6E6"/>
<path d="M19.3001 7.93257C19.3001 10.1417 21.0909 11.9326 23.3001 11.9326C25.5092 11.9326 27.3001 10.1417 27.3001 7.93257H19.3001ZM8.69971 7.93257C8.69971 10.1417 10.4906 11.9326 12.6997 11.9326C14.9088 11.9326 16.6997 10.1417 16.6997 7.93257H8.69971ZM23.3001 7.93257H27.3001V7.37382H23.3001H19.3001V7.93257H23.3001ZM23.3001 7.37382H27.3001C27.3001 3.33273 24.0404 0 19.9534 0V4V8C19.5613 8 19.3001 7.68997 19.3001 7.37382H23.3001ZM19.9534 4V0H16.0464V4V8H19.9534V4ZM16.0464 4V0C11.9594 0 8.69971 3.33273 8.69971 7.37382H12.6997H16.6997C16.6997 7.68997 16.4384 8 16.0464 8V4ZM12.6997 7.37382H8.69971V7.93257H12.6997H16.6997V7.37382H12.6997Z" fill="#E6E6E6" mask="url(#path-3-outside-1_320_6467)"/>
<mask id="path-5-outside-2_320_6467" maskUnits="userSpaceOnUse" x="0.240723" y="14.1217" width="36" height="22" fill="black">
<rect fill="white" x="0.240723" y="14.1217" width="36" height="22"/>
<path fill-rule="evenodd" clip-rule="evenodd" d="M4.24072 18.1217L4.52291 24.4447C4.71402 28.7062 6.81773 32 9.34845 32H26.6664C29.1971 32 31.3008 28.7062 31.4919 24.4447L31.7741 18.1217"/>
</mask>
<path fill-rule="evenodd" clip-rule="evenodd" d="M4.24072 18.1217L4.52291 24.4447C4.71402 28.7062 6.81773 32 9.34845 32H26.6664C29.1971 32 31.3008 28.7062 31.4919 24.4447L31.7741 18.1217" fill="#E6E6E6"/>
<path d="M8.23675 17.9434C8.13825 15.7364 6.26933 14.0272 4.06239 14.1257C1.85544 14.2242 0.146207 16.0931 0.2447 18.3L8.23675 17.9434ZM4.52291 24.4447L0.526887 24.623L0.526926 24.6239L4.52291 24.4447ZM31.4919 24.4447L35.4879 24.6239L35.4879 24.623L31.4919 24.4447ZM35.7701 18.3C35.8686 16.0931 34.1594 14.2242 31.9524 14.1257C29.7455 14.0272 27.8766 15.7364 27.7781 17.9434L35.7701 18.3ZM4.24072 18.1217L0.2447 18.3L0.526887 24.623L4.52291 24.4447L8.51893 24.2664L8.23675 17.9434L4.24072 18.1217ZM4.52291 24.4447L0.526926 24.6239C0.647723 27.3175 1.37493 29.9188 2.68724 31.9735C3.96012 33.9665 6.20324 36 9.34845 36V32V28C9.96294 28 9.88885 28.3867 9.42941 27.6674C9.00941 27.0098 8.58921 25.8334 8.51889 24.2655L4.52291 24.4447ZM9.34845 32V36H26.6664V32V28H9.34845V32ZM26.6664 32V36C29.8116 36 32.0547 33.9665 33.3276 31.9735C34.6399 29.9188 35.3671 27.3175 35.4879 24.6239L31.4919 24.4447L27.4959 24.2655C27.4256 25.8334 27.0054 27.0098 26.5854 27.6674C26.126 28.3867 26.0519 28 26.6664 28V32ZM31.4919 24.4447L35.4879 24.623L35.7701 18.3L31.7741 18.1217L27.7781 17.9434L27.4959 24.2664L31.4919 24.4447Z" fill="#E6E6E6" mask="url(#path-5-outside-2_320_6467)"/>
<path d="M18.0001 25.2612V21.3882" stroke="#BBBBBB" stroke-linecap="round" stroke-linejoin="round"/>
<path fill-rule="evenodd" clip-rule="evenodd" d="M27.3813 7.93958C29.9406 7.93958 32.0001 10.031 32.0001 12.611V17.8626C28.2748 20.0609 23.3532 21.3891 17.9925 21.3891C12.6317 21.3891 7.72527 20.0609 4 17.8626V12.5958C4 10.0158 6.07464 7.93958 8.63387 7.93958H27.3813Z" stroke="#BBBBBB" stroke-linecap="round" stroke-linejoin="round"/>
<path d="M23.3001 7.93257V7.37382C23.3001 5.51135 21.8009 4 19.9534 4H16.0464C14.1989 4 12.6997 5.51135 12.6997 7.37382V7.93257" stroke="#BBBBBB" stroke-linecap="round" stroke-linejoin="round"/>
<path d="M4.24072 18.1217L4.52291 24.4447C4.71402 28.7062 6.81773 32 9.34845 32H26.6664C29.1971 32 31.3008 28.7062 31.4919 24.4447L31.7741 18.1217" stroke="#BBBBBB" stroke-linecap="round" stroke-linejoin="round"/>
</svg>
