<svg width="34" height="36" viewBox="0 0 34 36" fill="none" xmlns="http://www.w3.org/2000/svg">
<path d="M31 31.2145C30.9999 32.319 30.1045 33.2145 29 33.2145H5C3.89548 33.2145 3.00007 32.319 3 31.2145V13.3531C3.0001 12.7112 3.30872 12.108 3.8291 11.7321L15.6875 3.16467L15.8203 3.07678C16.4961 2.66584 17.3574 2.69021 18.0117 3.15198L30.1533 11.7194C30.6842 12.094 30.9999 12.7034 31 13.3531V31.2145Z" fill="#B1D7FF" stroke="#B1D7FF" stroke-width="4" stroke-linecap="round" stroke-linejoin="round"/>
<path fill-rule="evenodd" clip-rule="evenodd" d="M12.3848 31.2143C12.9371 31.2143 13.3848 30.7666 13.3848 30.2143V26.2856C13.3848 25.7333 13.8325 25.2856 14.3848 25.2856H19.6638C20.2161 25.2856 20.6638 25.7333 20.6638 26.2856V30.2143C20.6638 30.7666 21.1115 31.2143 21.6638 31.2143H28C28.5523 31.2143 29 30.7666 29 30.2143V13.8717C29 13.5467 28.8421 13.242 28.5766 13.0547L17.4421 5.19746C17.0931 4.95117 16.6262 4.95377 16.2799 5.20393L5.41437 13.0541C5.15414 13.2421 5 13.5436 5 13.8647V30.2143C5 30.7666 5.44772 31.2143 6 31.2143H12.3848Z" stroke="#3A3B49" stroke-linecap="round"/>
</svg>
