<svg width="36" height="36" viewBox="0 0 36 36" fill="none" xmlns="http://www.w3.org/2000/svg">
<path d="M31.9995 29.1328L32.2046 29.1436C33.2129 29.246 33.9993 30.0975 33.9995 31.1328C33.9995 32.2374 33.1041 33.1328 31.9995 33.1328H20.7183C19.6137 33.1328 18.7183 32.2374 18.7183 31.1328C18.7185 30.0284 19.6138 29.1328 20.7183 29.1328H31.9995Z" fill="#FFFBBC" stroke="#FFFBBC" stroke-width="4" stroke-linecap="round" stroke-linejoin="round"/>
<path d="M17.6797 3.95312C19.5852 1.67576 22.9832 1.34708 25.2988 3.19434L25.333 3.22168C25.3561 3.23969 25.3882 3.26419 25.4277 3.29492C25.5067 3.35637 25.6159 3.44036 25.7441 3.54004C26.0005 3.73935 26.3342 3.99996 26.666 4.25781C26.9979 4.51569 27.3278 4.77147 27.5742 4.96289C27.6972 5.05841 27.7995 5.13775 27.8711 5.19336C27.8877 5.2063 27.9028 5.21826 27.916 5.22852C30.3769 6.80754 31.1474 10.0631 29.5684 12.5684L29.5674 12.5674C29.5476 12.5981 29.5211 12.6404 29.5107 12.6553C29.5038 12.6651 29.4923 12.6817 29.4873 12.6885L29.4424 12.7471C29.4305 12.7624 29.4158 12.7812 29.4004 12.8008C29.3686 12.8411 29.3234 12.8974 29.2676 12.9678C29.1552 13.1093 28.9928 13.3134 28.7881 13.5703C28.3782 14.0847 27.7962 14.8148 27.0996 15.6875C25.7059 17.4334 23.8522 19.7535 22.001 22.0703C20.1498 24.3871 18.3008 26.7016 16.9141 28.4365C16.2207 29.3039 15.6426 30.0264 15.2383 30.5322C15.0361 30.7851 14.8768 30.9837 14.7686 31.1191C14.7144 31.1869 14.6735 31.2394 14.6455 31.2744C14.6316 31.2919 14.6204 31.3046 14.6133 31.3135C14.6097 31.3179 14.6073 31.322 14.6055 31.3242C14.6047 31.3251 14.6039 31.3257 14.6035 31.3262V31.3271L13.041 30.0781L14.6025 31.3271L14.6016 31.3291C13.7312 32.4149 12.4179 33.0458 11.0283 33.0615L11.0293 33.0625L5.36816 33.1338C4.43152 33.1455 3.61188 32.5054 3.39648 31.5938L2.12109 26.1943V26.1934C1.80152 24.8356 2.12254 23.408 2.99902 22.3145L17.6514 3.9873L17.6797 3.95312Z" fill="#FFFBBC" stroke="#FFFBBC" stroke-width="4" stroke-linecap="round" stroke-linejoin="round"/>
<path d="M14.8909 7.45032C15.5636 6.57432 16.8185 6.40948 17.6946 7.08215L26.176 13.5948C27.0521 14.2676 27.2169 15.5235 26.5442 16.3995C25.9135 17.2208 24.7707 17.4169 23.9084 16.8839L23.7395 16.7677L15.259 10.254C14.383 9.58128 14.2182 8.32635 14.8909 7.45032Z" fill="#FFFBBC" stroke="#FFFBBC" stroke-width="4" stroke-linecap="round" stroke-linejoin="round"/>
<path d="M20.7183 31.1333H32" stroke="#3A3B49" stroke-linecap="round" stroke-linejoin="round"/>
<path fill-rule="evenodd" clip-rule="evenodd" d="M19.2132 5.23635C20.4198 3.79433 22.5887 3.58288 24.0606 4.76492C24.142 4.82905 26.7568 6.86036 26.7568 6.86036C28.3738 7.83788 28.8762 9.91599 27.8766 11.5019C27.8236 11.5868 13.0407 30.0783 13.0407 30.0783C12.5489 30.6918 11.8023 31.0541 11.0045 31.0627L5.34325 31.1338L4.06771 25.7349C3.88903 24.9757 4.06771 24.1785 4.55953 23.5649L19.2132 5.23635Z" stroke="#3A3B49" stroke-linecap="round" stroke-linejoin="round"/>
<path d="M16.4768 8.66833L24.958 15.1817" stroke="#3A3B49" stroke-linecap="round" stroke-linejoin="round"/>
</svg>
