<svg width="36" height="36" viewBox="0 0 36 36" fill="none" xmlns="http://www.w3.org/2000/svg">
<path d="M24.1404 2.89612C26.7807 2.89615 29.0735 3.84208 30.696 5.58459C32.3034 7.31098 33.1042 9.65748 33.1042 12.2145V23.7858C33.1042 26.343 32.3029 28.6901 30.6951 30.4166C29.0723 32.1589 26.7791 33.1041 24.1384 33.1041H11.8591C9.21818 33.1041 6.92565 32.1586 5.30347 30.4156C3.69648 28.689 2.89624 26.3423 2.89624 23.7858V12.2145C2.89627 9.65525 3.70132 7.3089 5.30933 5.58362C6.93205 3.84269 9.22382 2.89612 11.8591 2.89612H24.1404Z" fill="#AFAFA4" stroke="#AFAFA4" stroke-width="4" stroke-linecap="round" stroke-linejoin="round"/>
<path d="M23.5938 16.0183L23.7979 16.0291C24.8064 16.1314 25.5936 16.9828 25.5938 18.0183C25.5938 19.0539 24.8065 19.9063 23.7979 20.0085L23.5938 20.0183H23.5811C22.4765 20.0183 21.5811 19.1229 21.5811 18.0183C21.5812 16.9139 22.4766 16.0183 23.5811 16.0183H23.5938Z" fill="#AFAFA4" stroke="#AFAFA4" stroke-width="4" stroke-linecap="round" stroke-linejoin="round"/>
<path d="M17.9146 16.0183L18.1187 16.0291C19.1272 16.1314 19.9144 16.9828 19.9146 18.0183C19.9146 19.0539 19.1273 19.9063 18.1187 20.0085L17.9146 20.0183H17.9019C16.7973 20.0183 15.9019 19.1229 15.9019 18.0183C15.902 16.9139 16.7974 16.0183 17.9019 16.0183H17.9146Z" fill="#AFAFA4" stroke="#AFAFA4" stroke-width="4" stroke-linecap="round" stroke-linejoin="round"/>
<path d="M12.2351 16.0183L12.4392 16.0291C13.4477 16.1314 14.2349 16.9828 14.2351 18.0183C14.2351 19.0539 13.4479 19.9063 12.4392 20.0085L12.2351 20.0183H12.2224C11.1178 20.0183 10.2224 19.1229 10.2224 18.0183C10.2226 16.9139 11.118 16.0183 12.2224 16.0183H12.2351Z" fill="#AFAFA4" stroke="#AFAFA4" stroke-width="4" stroke-linecap="round" stroke-linejoin="round"/>
<path fill-rule="evenodd" clip-rule="evenodd" d="M24.1402 4.896H11.8592C7.57941 4.896 4.89624 7.92625 4.89624 12.2145V23.7858C4.89624 28.0741 7.56524 31.1043 11.8592 31.1043H24.1388C28.4327 31.1043 31.1046 28.0741 31.1046 23.7858V12.2145C31.1046 7.92625 28.4327 4.896 24.1402 4.896Z" stroke="#3A3B49" stroke-linecap="round" stroke-linejoin="round"/>
<path d="M23.5809 18.0184H23.5936" stroke="#3A3B49" stroke-linecap="round" stroke-linejoin="round"/>
<path d="M17.9014 18.0184H17.9142" stroke="#3A3B49" stroke-linecap="round" stroke-linejoin="round"/>
<path d="M12.222 18.0184H12.2347" stroke="#3A3B49" stroke-linecap="round" stroke-linejoin="round"/>
</svg>
