<svg width="34" height="35" viewBox="0 0 34 35" fill="none" xmlns="http://www.w3.org/2000/svg">
<path d="M17.0002 19.4C19.8199 19.4 22.6733 19.6372 24.886 20.4791C26.0108 20.9071 27.0951 21.5373 27.9065 22.4889C28.7504 23.4786 29.2004 24.7022 29.2004 26.0914C29.2004 27.4844 28.7456 28.7087 27.8958 29.6959C27.0796 30.6439 25.9916 31.2688 24.8665 31.691C22.6525 32.5219 19.8013 32.7496 17.0002 32.7496C14.1809 32.7496 11.3274 32.5132 9.1145 31.6715C7.98965 31.2436 6.90557 30.6134 6.09399 29.6617C5.24983 28.6719 4.80005 27.4479 4.80005 26.0582C4.80008 24.6649 5.25458 23.4401 6.10474 22.4528C6.92109 21.5047 8.00975 20.8807 9.13501 20.4586C11.3491 19.6281 14.1997 19.4001 17.0002 19.4Z" fill="#FFFEF1" stroke="#FFFEF1" stroke-width="4" stroke-linecap="round" stroke-linejoin="round"/>
<path d="M16.9788 2.9873C21.6787 2.98753 25.4884 6.79707 25.4885 11.4971C25.4885 16.1966 21.6793 20.0086 16.9788 20.0088H16.926C12.2388 19.9929 8.45116 16.1778 8.46704 11.4902C8.47082 6.79271 12.2814 2.9873 16.9788 2.9873Z" fill="#FFFEF1" stroke="#FFFEF1" stroke-width="4" stroke-linecap="round" stroke-linejoin="round"/>
<path fill-rule="evenodd" clip-rule="evenodd" d="M17.0007 21.4C11.4987 21.4 6.80005 22.3308 6.80005 26.0583C6.80005 29.7859 11.4689 30.75 17.0007 30.75C22.5028 30.75 27.2 29.8178 27.2 26.0917C27.2 22.3656 22.5326 21.4 17.0007 21.4Z" stroke="#3A3B49" stroke-linecap="round" stroke-linejoin="round"/>
<path fill-rule="evenodd" clip-rule="evenodd" d="M16.9783 18.0084C20.574 18.0084 23.4883 15.0927 23.4883 11.4971C23.4883 7.90147 20.574 4.98718 16.9783 4.98718C13.3827 4.98718 10.4671 7.90147 10.4671 11.4971C10.4549 15.0806 13.3503 17.9962 16.9325 18.0084H16.9783Z" stroke="#3A3B49" stroke-linecap="round" stroke-linejoin="round"/>
</svg>
