<svg width="36" height="36" viewBox="0 0 36 36" fill="none" xmlns="http://www.w3.org/2000/svg">
<path d="M15.9998 25.2026V21.3608C15.9998 20.2564 16.8953 19.361 17.9998 19.3608C19.1043 19.3608 19.9998 20.2563 19.9998 21.3608V25.2026C19.9998 26.3072 19.1043 27.2026 17.9998 27.2026C16.8953 27.2025 15.9998 26.3071 15.9998 25.2026Z" fill="#B1D7FF" stroke="#B1D7FF" stroke-width="4" stroke-linecap="round" stroke-linejoin="round"/>
<path d="M27.3809 6.02063C31.0531 6.02063 34 8.99918 34 12.6544V17.8634C34 18.5736 33.6236 19.2311 33.0107 19.59C28.9427 21.9712 23.6635 23.3615 17.9922 23.3615C12.3199 23.3614 7.05639 21.9707 2.98926 19.59C2.37639 19.2311 2 18.5736 2 17.8634V12.6388C2.00026 8.96673 4.97876 6.02067 8.63379 6.02063H27.3809Z" fill="#B1D7FF" stroke="#B1D7FF" stroke-width="4" stroke-linecap="round" stroke-linejoin="round"/>
<mask id="path-3-outside-1_320_6381" maskUnits="userSpaceOnUse" x="8.69971" y="0.112915" width="19" height="12" fill="black">
<rect fill="white" x="8.69971" y="0.112915" width="19" height="12"/>
<path fill-rule="evenodd" clip-rule="evenodd" d="M23.3 8.01377V7.45954C23.3 5.61208 21.8008 4.11292 19.9534 4.11292H16.0464C14.1989 4.11292 12.6997 5.61208 12.6997 7.45954V8.01377"/>
</mask>
<path fill-rule="evenodd" clip-rule="evenodd" d="M23.3 8.01377V7.45954C23.3 5.61208 21.8008 4.11292 19.9534 4.11292H16.0464C14.1989 4.11292 12.6997 5.61208 12.6997 7.45954V8.01377" fill="#B1D7FF"/>
<path d="M19.3 8.01377C19.3 10.2229 21.0909 12.0138 23.3 12.0138C25.5092 12.0138 27.3 10.2229 27.3 8.01377H19.3ZM8.69971 8.01377C8.69971 10.2229 10.4906 12.0138 12.6997 12.0138C14.9088 12.0138 16.6997 10.2229 16.6997 8.01377H8.69971ZM23.3 8.01377H27.3V7.45954H23.3H19.3V8.01377H23.3ZM23.3 7.45954H27.3C27.3 3.40288 24.0099 0.112915 19.9534 0.112915V4.11292V8.11292C19.5918 8.11292 19.3 7.82128 19.3 7.45954H23.3ZM19.9534 4.11292V0.112915H16.0464V4.11292V8.11292H19.9534V4.11292ZM16.0464 4.11292V0.112915C11.9898 0.112915 8.69971 3.40288 8.69971 7.45954H12.6997H16.6997C16.6997 7.82128 16.408 8.11292 16.0464 8.11292V4.11292ZM12.6997 7.45954H8.69971V8.01377H12.6997H16.6997V7.45954H12.6997Z" fill="#B1D7FF" mask="url(#path-3-outside-1_320_6381)"/>
<mask id="path-5-outside-2_320_6381" maskUnits="userSpaceOnUse" x="0.240723" y="14.1207" width="36" height="22" fill="black">
<rect fill="white" x="0.240723" y="14.1207" width="36" height="22"/>
<path fill-rule="evenodd" clip-rule="evenodd" d="M4.24072 18.1207L4.52291 24.3927C4.71402 28.6199 6.81772 31.8872 9.34844 31.8872H26.6663C29.197 31.8872 31.3007 28.6199 31.4918 24.3927L31.774 18.1207"/>
</mask>
<path fill-rule="evenodd" clip-rule="evenodd" d="M4.24072 18.1207L4.52291 24.3927C4.71402 28.6199 6.81772 31.8872 9.34844 31.8872H26.6663C29.197 31.8872 31.3007 28.6199 31.4918 24.3927L31.774 18.1207" fill="#B1D7FF"/>
<path d="M8.23668 17.9409C8.13739 15.734 6.26785 14.0255 4.06094 14.1248C1.85403 14.2241 0.145473 16.0936 0.244765 18.3005L8.23668 17.9409ZM4.52291 24.3927L0.526951 24.5725L0.52699 24.5734L4.52291 24.3927ZM31.4918 24.3927L35.4878 24.5734L35.4878 24.5725L31.4918 24.3927ZM35.77 18.3005C35.8693 16.0936 34.1607 14.2241 31.9538 14.1248C29.7469 14.0255 27.8774 15.734 27.7781 17.9409L35.77 18.3005ZM4.24072 18.1207L0.244765 18.3005L0.526951 24.5725L4.52291 24.3927L8.51887 24.213L8.23668 17.9409L4.24072 18.1207ZM4.52291 24.3927L0.52699 24.5734C0.648236 27.2552 1.37823 29.8453 2.69518 31.8906C3.97509 33.8784 6.21878 35.8872 9.34844 35.8872V31.8872V27.8872C9.94738 27.8872 9.87387 28.2623 9.42147 27.5597C9.0061 26.9146 8.58869 25.7574 8.51883 24.2121L4.52291 24.3927ZM9.34844 31.8872V35.8872H26.6663V31.8872V27.8872H9.34844V31.8872ZM26.6663 31.8872V35.8872C29.796 35.8872 32.0397 33.8784 33.3196 31.8906C34.6365 29.8453 35.3665 27.2552 35.4878 24.5734L31.4918 24.3927L27.4959 24.2121C27.4261 25.7574 27.0087 26.9146 26.5933 27.5597C26.1409 28.2623 26.0674 27.8872 26.6663 27.8872V31.8872ZM31.4918 24.3927L35.4878 24.5725L35.77 18.3005L31.774 18.1207L27.7781 17.9409L27.4959 24.213L31.4918 24.3927Z" fill="#B1D7FF" mask="url(#path-5-outside-2_320_6381)"/>
<path d="M18.0001 25.2026V21.3608" stroke="#3A3B49" stroke-linecap="round" stroke-linejoin="round"/>
<path fill-rule="evenodd" clip-rule="evenodd" d="M27.3813 8.02063C29.9405 8.02063 32 10.0952 32 12.6544V17.8636C28.2747 20.0442 23.3532 21.3617 17.9924 21.3617C12.6317 21.3617 7.72526 20.0442 4 17.8636V12.6393C4 10.0801 6.07463 8.02063 8.63386 8.02063H27.3813Z" stroke="#3A3B49" stroke-linecap="round" stroke-linejoin="round"/>
<path d="M23.3 8.01377V7.45954C23.3 5.61208 21.8008 4.11292 19.9534 4.11292H16.0464C14.1989 4.11292 12.6997 5.61208 12.6997 7.45954V8.01377" stroke="#3A3B49" stroke-linecap="round" stroke-linejoin="round"/>
<path d="M4.24072 18.1207L4.52291 24.3927C4.71402 28.6199 6.81772 31.8872 9.34844 31.8872H26.6663C29.197 31.8872 31.3007 28.6199 31.4918 24.3927L31.774 18.1207" stroke="#3A3B49" stroke-linecap="round" stroke-linejoin="round"/>
</svg>
