<svg width="36" height="34" viewBox="0 0 36 34" fill="none" xmlns="http://www.w3.org/2000/svg">
<path d="M17.9995 29.748L17.0435 31.5039C17.6416 31.8294 18.3644 31.8284 18.9614 31.501L17.9995 29.748ZM17.9995 29.748L18.9624 31.501L18.9634 31.5C18.9642 31.4995 18.9651 31.4987 18.9663 31.498C18.9686 31.4968 18.9715 31.4951 18.9751 31.4932C18.9823 31.4892 18.9923 31.4843 19.0044 31.4775C19.0288 31.4639 19.0634 31.4446 19.1069 31.4199C19.1938 31.3706 19.3178 31.2993 19.4741 31.207C19.7872 31.0223 20.2315 30.7529 20.769 30.4072C21.8419 29.7172 23.2997 28.7143 24.8394 27.4619C27.8445 25.0175 31.4707 21.3767 32.8374 17.0312L32.8364 17.0303C34.5825 11.5581 32.6154 4.78934 26.2915 2.75195L26.2896 2.75098L25.9849 2.65918C23.3085 1.89354 20.3595 2.25745 17.9937 3.56738C15.4903 2.18038 12.472 1.8561 9.69287 2.75293C3.36224 4.79312 1.41169 11.5715 3.16357 17.041L3.16455 17.043C4.57133 21.4211 8.18828 25.0567 11.1899 27.4951C12.7256 28.7426 14.1769 29.7383 15.2446 30.4219C15.7795 30.7643 16.2212 31.0303 16.5327 31.2129C16.6886 31.3043 16.8123 31.375 16.8989 31.4238C16.9421 31.4482 16.9762 31.467 17.0005 31.4805C17.0127 31.4872 17.0226 31.4931 17.0298 31.4971C17.0333 31.499 17.0363 31.5007 17.0386 31.502C17.0396 31.5025 17.0407 31.5025 17.0415 31.5029L17.0425 31.5039L17.9995 29.748Z" fill="#FDB7FF" stroke="#FDB7FF" stroke-width="4" stroke-linecap="round" stroke-linejoin="round"/>
<path d="M22.0239 8.35095C22.5265 7.62728 23.4434 7.31727 24.2817 7.58826C26.5664 8.32704 28.1812 10.3674 28.3755 12.7611C28.4467 13.6392 27.9353 14.4605 27.1157 14.7836C26.296 15.1065 25.3608 14.8552 24.814 14.1644L22.0981 10.7328C21.5514 10.0419 21.5214 9.07465 22.0239 8.35095Z" fill="#FDB7FF" stroke="#FDB7FF" stroke-width="4" stroke-linecap="round" stroke-linejoin="round"/>
<path fill-rule="evenodd" clip-rule="evenodd" d="M5.06856 16.431C3.54847 11.6851 5.32497 6.26071 10.3074 4.65562C12.9282 3.80987 15.8211 4.30854 17.9999 5.94762C20.0611 4.35387 23.0602 3.81554 25.6782 4.65562C30.6606 6.26071 32.4485 11.6851 30.9298 16.431C28.564 23.9535 17.9999 29.7476 17.9999 29.7476C17.9999 29.7476 7.51372 24.0413 5.06856 16.431Z" stroke="#3A3B49" stroke-linecap="round" stroke-linejoin="round"/>
<path d="M23.6667 9.4917C25.1826 9.98187 26.2536 11.3348 26.3825 12.9229" stroke="#3A3B49" stroke-linecap="round" stroke-linejoin="round"/>
</svg>
