<svg width="37" height="36" viewBox="0 0 37 36" fill="none" xmlns="http://www.w3.org/2000/svg">
<mask id="path-1-outside-1_320_6588" maskUnits="userSpaceOnUse" x="6.26367" y="9.87329" width="23" height="17" fill="black">
<rect fill="white" x="6.26367" y="9.87329" width="23" height="17"/>
<path fill-rule="evenodd" clip-rule="evenodd" d="M11.2637 21.9404L15.5039 16.4294L20.3407 20.2287L24.4902 14.8733"/>
</mask>
<path fill-rule="evenodd" clip-rule="evenodd" d="M11.2637 21.9404L15.5039 16.4294L20.3407 20.2287L24.4902 14.8733" fill="#FFFEF1"/>
<path d="M8.09345 19.5012C6.74632 21.2521 7.07361 23.7635 8.82447 25.1106C10.5753 26.4578 13.0868 26.1305 14.4339 24.3796L8.09345 19.5012ZM15.5039 16.4294L17.9749 13.2838C17.1351 12.6242 16.0665 12.3277 15.007 12.4603C13.9474 12.593 12.9849 13.1438 12.3337 13.9902L15.5039 16.4294ZM20.3407 20.2287L17.8698 23.3743C18.7077 24.0325 19.7735 24.3292 20.831 24.1986C21.8884 24.068 22.8501 23.5209 23.5027 22.6787L20.3407 20.2287ZM27.6522 17.3232C29.0052 15.5769 28.6864 13.0644 26.9401 11.7114C25.1939 10.3583 22.6813 10.6771 21.3283 12.4234L27.6522 17.3232ZM11.2637 21.9404L14.4339 24.3796L18.6742 18.8686L15.5039 16.4294L12.3337 13.9902L8.09345 19.5012L11.2637 21.9404ZM15.5039 16.4294L13.033 19.5749L17.8698 23.3743L20.3407 20.2287L22.8116 17.0832L17.9749 13.2838L15.5039 16.4294ZM20.3407 20.2287L23.5027 22.6787L27.6522 17.3232L24.4902 14.8733L21.3283 12.4234L17.1788 17.7788L20.3407 20.2287Z" fill="#FFFEF1" mask="url(#path-1-outside-1_320_6588)"/>
<circle cx="29.3269" cy="6.95041" r="4.72311" fill="#FFFEF1" stroke="#FFFEF1" stroke-width="4" stroke-linecap="round" stroke-linejoin="round"/>
<mask id="path-4-outside-2_320_6588" maskUnits="userSpaceOnUse" x="0.935547" y="1.42029" width="35" height="35" fill="black">
<rect fill="white" x="0.935547" y="1.42029" width="35" height="35"/>
<path fill-rule="evenodd" clip-rule="evenodd" d="M22.143 5.42029H11.8471C7.58086 5.42029 4.93555 8.44165 4.93555 12.7079V24.1579C4.93555 28.4241 7.52899 31.4325 11.8471 31.4325H24.0362C28.3024 31.4325 30.9478 28.4241 30.9478 24.1579V14.1861"/>
</mask>
<path fill-rule="evenodd" clip-rule="evenodd" d="M22.143 5.42029H11.8471C7.58086 5.42029 4.93555 8.44165 4.93555 12.7079V24.1579C4.93555 28.4241 7.52899 31.4325 11.8471 31.4325H24.0362C28.3024 31.4325 30.9478 28.4241 30.9478 24.1579V14.1861" fill="#FFFEF1"/>
<path d="M22.143 9.42029C24.3522 9.42029 26.143 7.62943 26.143 5.42029C26.143 3.21115 24.3522 1.42029 22.143 1.42029V9.42029ZM34.9478 14.1861C34.9478 11.977 33.1569 10.1861 30.9478 10.1861C28.7386 10.1861 26.9478 11.977 26.9478 14.1861H34.9478ZM22.143 5.42029V1.42029H11.8471V5.42029V9.42029H22.143V5.42029ZM11.8471 5.42029V1.42029C8.72107 1.42029 5.88786 2.55532 3.85807 4.74485C1.86 6.90016 0.935547 9.75407 0.935547 12.7079H4.93555H8.93555C8.93555 11.3954 9.33375 10.6056 9.72488 10.1836C10.0843 9.79594 10.7068 9.42029 11.8471 9.42029V5.42029ZM4.93555 12.7079H0.935547V24.1579H4.93555H8.93555V12.7079H4.93555ZM4.93555 24.1579H0.935547C0.935547 27.0916 1.83537 29.9472 3.83466 32.1101C5.86917 34.3112 8.71123 35.4325 11.8471 35.4325V31.4325V27.4325C10.6648 27.4325 10.0511 27.0496 9.70939 26.6799C9.33244 26.2721 8.93555 25.4904 8.93555 24.1579H4.93555ZM11.8471 31.4325V35.4325H24.0362V31.4325V27.4325H11.8471V31.4325ZM24.0362 31.4325V35.4325C27.1569 35.4325 29.9899 34.3045 32.0218 32.1181C34.0229 29.965 34.9478 27.1122 34.9478 24.1579H30.9478H26.9478C26.9478 25.4698 26.55 26.2543 26.1618 26.6719C25.8046 27.0563 25.1818 27.4325 24.0362 27.4325V31.4325ZM30.9478 24.1579H34.9478V14.1861H30.9478H26.9478V24.1579H30.9478Z" fill="#FFFEF1" mask="url(#path-4-outside-2_320_6588)"/>
<path d="M11.2637 21.9404L15.5039 16.4294L20.3407 20.2287L24.4902 14.8733" stroke="#3A3B49" stroke-linecap="round" stroke-linejoin="round"/>
<circle cx="29.3271" cy="6.95028" r="2.72311" stroke="#3A3B49" stroke-linecap="round" stroke-linejoin="round"/>
<path d="M22.143 5.42041H11.8471C7.58086 5.42041 4.93555 8.44177 4.93555 12.708V24.158C4.93555 28.4242 7.52899 31.4326 11.8471 31.4326H24.0362C28.3024 31.4326 30.9478 28.4242 30.9478 24.158V14.1862" stroke="#3A3B49" stroke-linecap="round" stroke-linejoin="round"/>
</svg>
