<svg width="31" height="37" viewBox="0 0 31 37" fill="none" xmlns="http://www.w3.org/2000/svg">
<path fill-rule="evenodd" clip-rule="evenodd" d="M19.0547 5.85966H10.0731C7.26515 5.84855 4.9634 8.15072 4.89725 11.0374V25.9127C4.83515 28.8466 7.0964 31.2779 9.94894 31.3432C9.99079 31.3432 10.0313 31.3446 10.0731 31.3432H20.8583C23.6852 31.2251 25.9127 28.823 25.8924 25.9127V13.1855L19.0547 5.85966Z" fill="#E6E6E6" stroke="#E6E6E6" stroke-width="9.8" stroke-linecap="round" stroke-linejoin="round"/>
<path fill-rule="evenodd" clip-rule="evenodd" d="M18.6997 5.84375V9.88295C18.6997 11.8547 20.2495 13.4528 22.1665 13.4584H25.8858" fill="#E6E6E6"/>
<path d="M18.6997 5.84375V9.88295C18.6997 11.8547 20.2495 13.4528 22.1665 13.4584H25.8858" stroke="#E6E6E6" stroke-width="9.8" stroke-linecap="round" stroke-linejoin="round"/>
<path fill-rule="evenodd" clip-rule="evenodd" d="M18.4477 23.3505H11.1577H18.4477Z" fill="#E6E6E6"/>
<path d="M18.4477 23.3505H11.1577" stroke="#E6E6E6" stroke-width="9.8" stroke-linecap="round" stroke-linejoin="round"/>
<path fill-rule="evenodd" clip-rule="evenodd" d="M15.6869 18.1402H11.1562H15.6869Z" fill="#E6E6E6"/>
<path d="M15.6869 18.1402H11.1562" stroke="#E6E6E6" stroke-width="9.8" stroke-linecap="round" stroke-linejoin="round"/>
<path fill-rule="evenodd" clip-rule="evenodd" d="M19.9437 5.01787H10.064C6.9752 5.00599 4.44328 7.46812 4.37051 10.5554V26.4642C4.3022 29.602 6.78958 32.2023 9.92738 32.2721C9.97342 32.2721 10.018 32.2736 10.064 32.2721H21.9277C25.0373 32.1458 27.4875 29.5768 27.4652 26.4642V12.8527L19.9437 5.01787Z" stroke="#3A3B49" stroke-opacity="0.3" stroke-linecap="round" stroke-linejoin="round"/>
<path d="M19.5526 5.00012V9.31999C19.5526 11.4287 21.2574 13.1379 23.3661 13.1439H27.4573" stroke="#3A3B49" stroke-opacity="0.3" stroke-linecap="round" stroke-linejoin="round"/>
<path d="M19.2755 23.7239H11.2565" stroke="#3A3B49" stroke-opacity="0.3" stroke-linecap="round" stroke-linejoin="round"/>
<path d="M16.2385 18.1509H11.2549" stroke="#3A3B49" stroke-opacity="0.3" stroke-linecap="round" stroke-linejoin="round"/>
</svg>
