<svg width="34" height="33" viewBox="0 0 34 33" fill="none" xmlns="http://www.w3.org/2000/svg">
<path fill-rule="evenodd" clip-rule="evenodd" d="M5.48342 16.1778C4.08852 11.8228 5.71872 6.84512 10.2908 5.37222C12.6958 4.59612 15.3504 5.05372 17.3498 6.55782C19.2413 5.09532 21.9934 4.60132 24.3958 5.37222C28.9679 6.84512 30.6085 11.8228 29.2149 16.1778C27.0439 23.0808 17.3498 28.3978 17.3498 28.3978C17.3498 28.3978 7.72722 23.1614 5.48342 16.1778Z" fill="#E6E6E6" stroke="#E6E6E6" stroke-width="8.1" stroke-linecap="round" stroke-linejoin="round"/>
<path fill-rule="evenodd" clip-rule="evenodd" d="M22.5503 9.81018C23.9413 10.26 24.9241 11.5015 25.0424 12.9588L22.5503 9.81018Z" fill="#E6E6E6"/>
<path d="M22.5503 9.81018C23.9413 10.26 24.9241 11.5015 25.0424 12.9588" stroke="#E6E6E6" stroke-width="8.1" stroke-linecap="round" stroke-linejoin="round"/>
<path fill-rule="evenodd" clip-rule="evenodd" d="M5.13382 16.1778C3.73892 11.8228 5.36912 6.84512 9.94122 5.37222C12.3462 4.59612 15.0008 5.05372 17.0002 6.55782C18.8917 5.09532 21.6438 4.60132 24.0462 5.37222C28.6183 6.84512 30.2589 11.8228 28.8653 16.1778C26.6943 23.0808 17.0002 28.3978 17.0002 28.3978C17.0002 28.3978 7.37762 23.1614 5.13382 16.1778Z" stroke="#3A3B49" stroke-opacity="0.3" stroke-linecap="round" stroke-linejoin="round"/>
<path d="M22.2002 9.81018C23.5912 10.26 24.574 11.5015 24.6923 12.9588" stroke="#3A3B49" stroke-opacity="0.3" stroke-linecap="round" stroke-linejoin="round"/>
</svg>
