<svg width="39" height="37" viewBox="0 0 39 37" fill="none" xmlns="http://www.w3.org/2000/svg">
<path d="M15.4644 22.5145L14.7567 24.3852C15.3935 24.6261 16.1096 24.5265 16.6564 24.1209L15.4644 22.5145ZM15.4644 22.5145L16.6573 24.1198L16.6582 24.1197C16.6589 24.1192 16.66 24.118 16.6609 24.1173C16.6626 24.116 16.6646 24.1144 16.6671 24.1125C16.6723 24.1086 16.6792 24.1032 16.6876 24.0969C16.7044 24.0843 16.7275 24.0671 16.7564 24.045C16.8145 24.0006 16.897 23.937 16.9995 23.8559C17.2044 23.6936 17.4924 23.4593 17.8386 23.1627C18.5291 22.5713 19.4616 21.7215 20.4286 20.6861C22.2973 18.6849 24.5686 15.7054 25.1325 12.3806L25.1314 12.3797C25.835 8.32415 23.8693 3.60074 19.2041 2.50656L18.7436 2.4122L18.7416 2.41246C16.6961 2.05335 14.5452 2.54772 12.8726 3.68911C10.9285 3.02786 8.76256 3.13551 6.87019 4.04665L6.87006 4.04569C2.29083 6.24849 1.58812 11.5464 3.4234 15.378L3.4245 15.3788C4.89585 18.4436 7.87777 20.6961 10.2166 22.1156C11.424 22.8484 12.5461 23.4097 13.3666 23.7888C13.7779 23.9789 14.1172 24.1247 14.3571 24.2243C14.4771 24.2741 14.5734 24.3132 14.6411 24.34C14.6747 24.3533 14.7019 24.3638 14.7213 24.3713C14.7306 24.3749 14.7383 24.3778 14.7442 24.38C14.7472 24.3812 14.7504 24.382 14.7525 24.3828C14.7535 24.3832 14.7548 24.3841 14.7556 24.3844L14.7566 24.3842L15.4644 22.5145Z" fill="#E6E6E6" stroke="#E6E6E6" stroke-width="4" stroke-linecap="round" stroke-linejoin="round"/>
<path d="M31.1506 19.4528C32.3598 19.5522 33.3678 20.0882 34.1423 20.7609L34.1411 20.7614C36.4791 22.79 36.6651 25.8246 35.6943 28.1935C34.707 30.6072 32.7012 32.1195 30.6664 33.0228C28.6297 33.9269 26.3772 34.3125 24.5064 34.3814C24.2152 34.3921 23.929 34.3377 23.6659 34.2285C23.6551 34.224 23.6446 34.2188 23.6338 34.2141C23.4499 34.1339 23.2771 34.0277 23.1235 33.8947C23.0682 33.8469 23.015 33.7963 22.9647 33.7422C21.6916 32.3698 20.3728 30.5034 19.5733 28.4234C18.7746 26.3455 18.4264 23.8579 19.4363 21.4538C20.4261 19.0929 22.7049 17.0796 25.7921 17.2998C26.8154 17.3725 27.9073 17.7062 28.8322 18.4915C29.1893 18.7948 29.497 19.146 29.7569 19.5378C30.2178 19.4448 30.6835 19.4144 31.1506 19.4528Z" fill="#E6E6E6" stroke="#E6E6E6" stroke-width="4" stroke-linecap="round" stroke-linejoin="round"/>
<path fill-rule="evenodd" clip-rule="evenodd" d="M5.22732 14.5138C3.72048 11.3679 4.43489 7.4369 7.73678 5.84854C9.47348 5.01204 11.5271 5.08186 13.1943 6.01061C14.4716 4.7088 16.5 4.04938 18.3955 4.38217C22.0037 5.01988 23.7609 8.61084 23.1606 12.0467C22.2376 17.4888 15.4648 22.5145 15.4648 22.5145C15.4648 22.5145 7.64892 19.5579 5.22732 14.5138Z" stroke="#BBBBBB" stroke-linecap="round" stroke-linejoin="round"/>
<path d="M33.8431 27.437C34.5748 25.6531 34.3658 23.6035 32.8306 22.2715C31.7768 21.3562 30.3504 21.0309 28.6787 22.1383C28.2811 20.1729 27.0429 19.3935 25.6506 19.2946C23.6231 19.1496 22.025 20.4503 21.2799 22.2289C19.7947 25.7646 22.1414 29.9143 24.4306 32.3818L24.4317 32.3818L24.4324 32.3826C27.7961 32.2587 32.3911 30.9868 33.8431 27.437Z" stroke="#BBBBBB" stroke-linecap="square"/>
</svg>
