<svg width="33" height="34" viewBox="0 0 33 34" fill="none" xmlns="http://www.w3.org/2000/svg">
<path fill-rule="evenodd" clip-rule="evenodd" d="M16.2819 21.4471C10.7512 21.4471 6.02808 22.1496 6.02808 24.9628C6.02808 27.776 10.7212 28.5036 16.2819 28.5036C21.8126 28.5036 26.5343 27.8 26.5343 24.988C26.5343 22.1759 21.8425 21.4471 16.2819 21.4471Z" fill="#E6E6E6" stroke="#E6E6E6" stroke-width="11" stroke-linecap="round" stroke-linejoin="round"/>
<path fill-rule="evenodd" clip-rule="evenodd" d="M16.2821 17.4347C19.9115 17.4347 22.8533 14.9624 22.8533 11.9136C22.8533 8.86469 19.9115 6.39355 16.2821 6.39355C12.6526 6.39355 9.70951 8.86469 9.70951 11.9136C9.69725 14.9521 12.6199 17.4244 16.2358 17.4347H16.2821Z" fill="#E6E6E6" stroke="#E6E6E6" stroke-width="11" stroke-linecap="round" stroke-linejoin="round"/>
<path fill-rule="evenodd" clip-rule="evenodd" d="M16.0007 20.9727C9.91695 20.9727 4.72156 21.8925 4.72156 25.5763C4.72156 29.2601 9.88399 30.2129 16.0007 30.2129C22.0845 30.2129 27.2784 29.2916 27.2784 25.6093C27.2784 21.9269 22.1174 20.9727 16.0007 20.9727Z" stroke="#3A3B49" stroke-opacity="0.3" stroke-linecap="round" stroke-linejoin="round"/>
<path fill-rule="evenodd" clip-rule="evenodd" d="M16.0012 19.4581C19.9936 19.4581 23.2295 16.2207 23.2295 12.2283C23.2295 8.23589 19.9936 5 16.0012 5C12.0088 5 8.7714 8.23589 8.7714 12.2283C8.75792 16.2073 11.9728 19.4446 15.9503 19.4581H16.0012Z" stroke="#3A3B49" stroke-opacity="0.3" stroke-linecap="round" stroke-linejoin="round"/>
</svg>
