<svg width="38" height="34" viewBox="0 0 38 34" fill="none" xmlns="http://www.w3.org/2000/svg">
<mask id="path-1-outside-1_320_6550" maskUnits="userSpaceOnUse" x="21.4026" y="2.1792" width="14" height="18" fill="black">
<rect fill="white" x="21.4026" y="2.1792" width="14" height="18"/>
<path fill-rule="evenodd" clip-rule="evenodd" d="M26.4026 15.8259C28.4085 15.5441 30.7546 13.5559 30.7589 11.4724C30.7589 9.41908 28.7583 7.50129 26.7956 7.1792"/>
</mask>
<path fill-rule="evenodd" clip-rule="evenodd" d="M26.4026 15.8259C28.4085 15.5441 30.7546 13.5559 30.7589 11.4724C30.7589 9.41908 28.7583 7.50129 26.7956 7.1792" fill="#E6E6E6"/>
<path d="M25.846 11.8648C23.6584 12.1722 22.1341 14.1948 22.4415 16.3824C22.7489 18.5701 24.7715 20.0943 26.9591 19.787L25.846 11.8648ZM30.7589 11.4724L34.7589 11.4807V11.4724H30.7589ZM27.4434 3.23199C25.2634 2.87425 23.2062 4.35147 22.8484 6.53145C22.4907 8.71143 23.9679 10.7687 26.1479 11.1264L27.4434 3.23199ZM26.4026 15.8259L26.9591 19.787C28.9277 19.5104 30.7532 18.4862 32.0805 17.2303C33.3835 15.9974 34.7536 14.0037 34.7589 11.4807L30.7589 11.4724L26.7589 11.4641C26.7594 11.2294 26.825 11.117 26.8106 11.1447C26.7947 11.1752 26.7295 11.2798 26.5822 11.4192C26.4376 11.556 26.2652 11.6772 26.0975 11.7636C25.9231 11.8534 25.8296 11.8671 25.846 11.8648L26.4026 15.8259ZM30.7589 11.4724H34.7589C34.7589 9.14734 33.6513 7.21088 32.3985 5.90617C31.1439 4.5995 29.3979 3.55273 27.4434 3.23199L26.7956 7.1792L26.1479 11.1264C26.129 11.1233 26.1879 11.1314 26.3024 11.1949C26.4142 11.2569 26.5303 11.3452 26.628 11.447C26.7266 11.5497 26.7706 11.6283 26.7827 11.6546C26.7933 11.6774 26.7589 11.6135 26.7589 11.4724H30.7589Z" fill="#E6E6E6" mask="url(#path-1-outside-1_320_6550)"/>
<mask id="path-3-outside-2_320_6550" maskUnits="userSpaceOnUse" x="19.8306" y="13.9701" width="18" height="15" fill="black">
<rect fill="white" x="19.8306" y="13.9701" width="18" height="15"/>
<path fill-rule="evenodd" clip-rule="evenodd" d="M24.8306 18.9701C26.7732 19.2605 33.1498 21.3501 33.1498 22.752C33.1498 23.7168 32.5114 24.3438 31.479 24.7377"/>
</mask>
<path fill-rule="evenodd" clip-rule="evenodd" d="M24.8306 18.9701C26.7732 19.2605 33.1498 21.3501 33.1498 22.752C33.1498 23.7168 32.5114 24.3438 31.479 24.7377" fill="#E6E6E6"/>
<path d="M25.4221 15.0141C23.2372 14.6874 21.2012 16.1937 20.8745 18.3786C20.5479 20.5634 22.0542 22.5994 24.2391 22.9261L25.4221 15.0141ZM30.0529 21.0006C27.9889 21.7883 26.9542 24.0999 27.7419 26.1639C28.5295 28.2278 30.8412 29.2625 32.9052 28.4749L30.0529 21.0006ZM24.8306 18.9701L24.2391 22.9261C24.7885 23.0083 26.5504 23.4859 28.2346 24.1588C29.0608 24.4888 29.6584 24.7844 29.9839 24.9904C30.1577 25.1004 30.0937 25.0853 29.9408 24.9206C29.8609 24.8346 29.1498 24.0768 29.1498 22.752H33.1498H37.1498C37.1498 21.0767 36.2395 19.9469 35.8033 19.4772C35.2941 18.9287 34.7167 18.5181 34.2623 18.2306C33.3315 17.6414 32.2136 17.1336 31.2027 16.7297C29.213 15.9348 26.8152 15.2224 25.4221 15.0141L24.8306 18.9701ZM33.1498 22.752H29.1498C29.1498 22.5434 29.1861 22.2801 29.2933 21.9971C29.4005 21.7141 29.5514 21.4831 29.7045 21.3099C29.9874 20.9898 30.2068 20.9419 30.0529 21.0006L31.479 24.7377L32.9052 28.4749C33.7836 28.1396 34.8384 27.5813 35.6987 26.608C36.633 25.5509 37.1498 24.2111 37.1498 22.752H33.1498Z" fill="#E6E6E6" mask="url(#path-3-outside-2_320_6550)"/>
<path d="M18.5754 18.974C20.9437 18.974 23.3589 19.1506 25.2444 19.7914C26.1977 20.1154 27.162 20.606 27.9045 21.3842C28.693 22.2106 29.1428 23.2724 29.1428 24.4955C29.1428 25.7229 28.6882 26.7859 27.8938 27.6097C27.147 28.3842 26.179 28.8682 25.2258 29.1869C23.34 29.8174 20.9274 29.9867 18.5754 29.9867C16.2074 29.9867 13.792 29.8107 11.9065 29.1713C10.9535 28.848 9.99021 28.3585 9.24731 27.5814C8.45801 26.7558 8.00711 25.6944 8.00708 24.4711C8.00708 23.2435 8.46223 22.1806 9.2561 21.3568C10.0024 20.5824 10.969 20.0974 11.9221 19.7777C13.8086 19.1451 16.2221 18.974 18.5754 18.974Z" fill="#E6E6E6" stroke="#E6E6E6" stroke-width="4" stroke-linecap="round" stroke-linejoin="round"/>
<path d="M18.5757 4C22.7127 4 26.0668 7.35417 26.0669 11.4912C26.0669 15.6301 22.7124 18.9824 18.5757 18.9824H18.5288C14.4009 18.9686 11.0688 15.6102 11.0845 11.4834C11.0888 7.35 14.4413 4.00009 18.5757 4Z" fill="#E6E6E6" stroke="#E6E6E6" stroke-width="4" stroke-linecap="round" stroke-linejoin="round"/>
<mask id="path-7-outside-3_320_6550" maskUnits="userSpaceOnUse" x="2.39111" y="2.39441" width="14" height="18" fill="black">
<rect fill="white" x="2.39111" y="2.39441" width="14" height="18"/>
<path fill-rule="evenodd" clip-rule="evenodd" d="M11.8605 15.8258C9.85324 15.5439 6.39543 13.5558 6.39111 11.4723C6.39111 9.41897 7.88796 7.7165 9.85069 7.39441"/>
</mask>
<path fill-rule="evenodd" clip-rule="evenodd" d="M11.8605 15.8258C9.85324 15.5439 6.39543 13.5558 6.39111 11.4723C6.39111 9.41897 7.88796 7.7165 9.85069 7.39441" fill="#E6E6E6"/>
<path d="M11.3044 19.7869C13.4921 20.0941 15.5145 18.5696 15.8217 16.3819C16.1288 14.1942 14.6044 12.1718 12.4167 11.8646L11.3044 19.7869ZM6.39111 11.4723H2.3911L2.39112 11.4806L6.39111 11.4723ZM10.4984 11.3416C12.6784 10.9839 14.1556 8.92664 13.7979 6.74666C13.4402 4.56668 11.3829 3.08946 9.20295 3.4472L10.4984 11.3416ZM11.8605 15.8258L12.4167 11.8646C12.3541 11.8558 12.1081 11.802 11.7284 11.6401C11.367 11.486 10.9998 11.2829 10.6912 11.0637C10.3673 10.8336 10.2196 10.6654 10.1865 10.6205C10.146 10.5654 10.3899 10.8635 10.3911 11.464L6.39111 11.4723L2.39112 11.4806C2.39452 13.1228 3.07227 14.4508 3.74397 15.3632C4.42321 16.2859 5.26617 17.023 6.05822 17.5856C7.58159 18.6678 9.54024 19.5392 11.3044 19.7869L11.8605 15.8258ZM6.39111 11.4723H10.3911C10.3911 11.4483 10.3949 11.4347 10.3983 11.4257C10.4024 11.4148 10.4097 11.4016 10.4214 11.3879C10.4469 11.3581 10.4754 11.3454 10.4984 11.3416L9.85069 7.39441L9.20295 3.4472C5.33976 4.08116 2.39111 7.42677 2.39111 11.4723H6.39111Z" fill="#E6E6E6" mask="url(#path-7-outside-3_320_6550)"/>
<mask id="path-9-outside-4_320_6550" maskUnits="userSpaceOnUse" x="0" y="15.5422" width="14" height="14" fill="black">
<rect fill="white" y="15.5422" width="14" height="14"/>
<path fill-rule="evenodd" clip-rule="evenodd" d="M9.89547 20.5422C7.95287 20.8327 4 21.3501 4 22.752C4 23.7169 4.63843 24.3438 5.67084 24.7378"/>
</mask>
<path fill-rule="evenodd" clip-rule="evenodd" d="M9.89547 20.5422C7.95287 20.8327 4 21.3501 4 22.752C4 23.7169 4.63843 24.3438 5.67084 24.7378" fill="#E6E6E6"/>
<path d="M10.487 24.4983C12.6718 24.1716 14.1782 22.1356 13.8515 19.9507C13.5248 17.7659 11.4888 16.2595 9.30397 16.5862L10.487 24.4983ZM4.24469 28.4749C6.30865 29.2625 8.62032 28.2279 9.40796 26.1639C10.1956 24.0999 9.16094 21.7883 7.09698 21.0006L4.24469 28.4749ZM9.89547 20.5422L9.30397 16.5862C8.43677 16.7159 6.67419 16.9538 5.15176 17.3754C4.41164 17.5803 3.4196 17.9078 2.53038 18.4627C1.75887 18.9441 0 20.287 0 22.752H4H8C8 23.5879 7.68625 24.2505 7.37141 24.6694C7.09097 25.0426 6.82116 25.215 6.7656 25.2496C6.67824 25.3041 6.79583 25.2212 7.28676 25.0852C8.22641 24.825 9.41157 24.6591 10.487 24.4983L9.89547 20.5422ZM4 22.752H0C0 24.2111 0.516862 25.5509 1.45118 26.608C2.31144 27.5813 3.36623 28.1397 4.24469 28.4749L5.67084 24.7378L7.09698 21.0006C6.94303 20.9419 7.1624 20.9898 7.44535 21.3099C7.59841 21.4831 7.74936 21.7141 7.85655 21.9971C7.96375 22.2801 8 22.5434 8 22.752H4Z" fill="#E6E6E6" mask="url(#path-9-outside-4_320_6550)"/>
<path d="M27.2046 15.5574C29.2105 15.2755 30.7548 13.5558 30.7591 11.4723C30.7591 9.41897 29.2622 7.7165 27.2995 7.39441" stroke="#BBBBBB" stroke-linecap="round" stroke-linejoin="round"/>
<path d="M29.8513 20.3793C31.7939 20.6697 33.1499 21.3499 33.1499 22.7518C33.1499 23.7166 32.5114 24.3436 31.479 24.7375" stroke="#BBBBBB" stroke-linecap="round" stroke-linejoin="round"/>
<path fill-rule="evenodd" clip-rule="evenodd" d="M18.5755 20.9741C13.9541 20.9741 10.0071 21.6744 10.0071 24.4711C10.0071 27.2664 13.9297 27.9867 18.5755 27.9867C23.1969 27.9867 27.1425 27.2937 27.1425 24.4955C27.1425 21.6974 23.2214 20.9741 18.5755 20.9741Z" stroke="#BBBBBB" stroke-linecap="round" stroke-linejoin="round"/>
<path fill-rule="evenodd" clip-rule="evenodd" d="M18.5756 16.9827C21.6081 16.9827 24.0669 14.5253 24.0669 11.4913C24.0669 8.4588 21.6081 6 18.5756 6C15.5431 6 13.0843 8.4588 13.0843 11.4913C13.0728 14.5138 15.5129 16.9726 18.5353 16.9827H18.5756Z" stroke="#BBBBBB" stroke-linecap="round" stroke-linejoin="round"/>
<path d="M9.94535 15.5574C7.93805 15.2755 6.39518 13.5558 6.39087 11.4723C6.39087 9.41897 7.88772 7.7165 9.85045 7.39441" stroke="#BBBBBB" stroke-linecap="round" stroke-linejoin="round"/>
<path d="M7.29854 20.3793C5.35594 20.6697 4 21.3499 4 22.7518C4 23.7166 4.63843 24.3436 5.67084 24.7375" stroke="#BBBBBB" stroke-linecap="round" stroke-linejoin="round"/>
</svg>
