<svg width="36" height="36" viewBox="0 0 36 36" fill="none" xmlns="http://www.w3.org/2000/svg">
<path d="M18 2C26.8366 2 34 9.16344 34 18C34 26.8366 26.8366 34 18 34C9.16344 34 2 26.8366 2 18C2 9.16344 9.16344 2 18 2Z" fill="#E6E6E6" stroke="#E6E6E6" stroke-width="4" stroke-linecap="round" stroke-linejoin="round"/>
<path d="M20.9698 20.9698L21.1555 21.4341C21.2826 21.3833 21.3833 21.2826 21.4341 21.1555L20.9698 20.9698ZM24.9296 11.0704L25.3939 11.2561C25.4682 11.0703 25.4246 10.8582 25.2832 10.7168C25.1418 10.5754 24.9297 10.5318 24.7439 10.6061L24.9296 11.0704ZM15.0302 15.0302L14.8445 14.5659C14.7174 14.6167 14.6167 14.7174 14.5659 14.8445L15.0302 15.0302ZM11.0704 24.9296L10.6061 24.744C10.5318 24.9297 10.5754 25.1418 10.7168 25.2832C10.8582 25.4246 11.0703 25.4682 11.256 25.3939L11.0704 24.9296ZM20.9698 20.9698L21.4341 21.1555L25.3939 11.2561L24.9296 11.0704L24.4654 10.8847L20.5056 20.7842L20.9698 20.9698ZM24.9296 11.0704L24.7439 10.6061L14.8445 14.5659L15.0302 15.0302L15.2158 15.4944L25.1153 11.5346L24.9296 11.0704ZM15.0302 15.0302L14.5659 14.8445L10.6061 24.744L11.0704 24.9296L11.5346 25.1153L15.4944 15.2158L15.0302 15.0302ZM11.0704 24.9296L11.256 25.3939L21.1555 21.4341L20.9698 20.9698L20.7842 20.5056L10.8847 24.4654L11.0704 24.9296ZM18 32V32.5C26.0081 32.5 32.5 26.0081 32.5 18H32H31.5C31.5 25.4558 25.4558 31.5 18 31.5V32ZM32 18H32.5C32.5 9.99187 26.0081 3.5 18 3.5V4V4.5C25.4558 4.5 31.5 10.5442 31.5 18H32ZM18 4V3.5C9.99187 3.5 3.5 9.99187 3.5 18H4H4.5C4.5 10.5442 10.5442 4.5 18 4.5V4ZM4 18H3.5C3.5 26.0081 9.99187 32.5 18 32.5V32V31.5C10.5442 31.5 4.5 25.4558 4.5 18H4Z" fill="#BBBBBB"/>
</svg>
