<svg width="61" height="60" viewBox="0 0 61 60" fill="none" xmlns="http://www.w3.org/2000/svg">
<rect x="0.5" width="60" height="60" rx="30" fill="#9ECDFF" fill-opacity="0.4"/>
<path fill-rule="evenodd" clip-rule="evenodd" d="M23.4998 25.3334C24.7885 25.3334 25.8332 24.2887 25.8332 23C25.8332 21.7114 24.7885 20.6667 23.4998 20.6667C22.2112 20.6667 21.1665 21.7114 21.1665 23C21.1665 24.2887 22.2112 25.3334 23.4998 25.3334Z" fill="black"/>
<path fill-rule="evenodd" clip-rule="evenodd" d="M37.4998 25.3334C38.7885 25.3334 39.8332 24.2887 39.8332 23C39.8332 21.7114 38.7885 20.6667 37.4998 20.6667C36.2112 20.6667 35.1665 21.7114 35.1665 23C35.1665 24.2887 36.2112 25.3334 37.4998 25.3334Z" fill="black"/>
<path opacity="0.9" d="M21.1665 37H39.8332" stroke="black" stroke-width="2" stroke-linecap="round"/>
<path fill-rule="evenodd" clip-rule="evenodd" d="M30.4998 53.3334C43.3865 53.3334 53.8332 42.8867 53.8332 30C53.8332 17.1134 43.3865 6.66669 30.4998 6.66669C17.6132 6.66669 7.1665 17.1134 7.1665 30C7.1665 42.8867 17.6132 53.3334 30.4998 53.3334Z" stroke="black" stroke-width="2"/>
</svg>
