<svg width="60" height="60" viewBox="0 0 60 60" fill="none" xmlns="http://www.w3.org/2000/svg">
<rect width="60" height="60" rx="30" fill="#9ECDFF"/>
<path d="M19.0356 34.6693C20.8378 38.7683 25.3054 41.6666 29.9988 41.6666C34.6723 41.6666 39.1312 38.7607 40.949 34.6795" stroke="black" stroke-width="2" stroke-linecap="round"/>
<path fill-rule="evenodd" clip-rule="evenodd" d="M22.9998 25.3334C24.2885 25.3334 25.3332 24.2887 25.3332 23C25.3332 21.7114 24.2885 20.6667 22.9998 20.6667C21.7112 20.6667 20.6665 21.7114 20.6665 23C20.6665 24.2887 21.7112 25.3334 22.9998 25.3334Z" fill="black"/>
<path fill-rule="evenodd" clip-rule="evenodd" d="M36.9998 25.3334C38.2885 25.3334 39.3332 24.2887 39.3332 23C39.3332 21.7114 38.2885 20.6667 36.9998 20.6667C35.7112 20.6667 34.6665 21.7114 34.6665 23C34.6665 24.2887 35.7112 25.3334 36.9998 25.3334Z" fill="black"/>
<path fill-rule="evenodd" clip-rule="evenodd" d="M29.9998 53.3334C42.8865 53.3334 53.3332 42.8867 53.3332 30C53.3332 17.1134 42.8865 6.66669 29.9998 6.66669C17.1132 6.66669 6.6665 17.1134 6.6665 30C6.6665 42.8867 17.1132 53.3334 29.9998 53.3334Z" stroke="black" stroke-width="2"/>
</svg>
