<svg width="61" height="60" viewBox="0 0 61 60" fill="none" xmlns="http://www.w3.org/2000/svg">
<g opacity="0.2">
<rect x="0.5" width="60" height="60" rx="30" fill="#BBBBBB"/>
<path fill-rule="evenodd" clip-rule="evenodd" d="M23.5001 25.3334C24.7887 25.3334 25.8334 24.2887 25.8334 23C25.8334 21.7114 24.7887 20.6667 23.5001 20.6667C22.2114 20.6667 21.1667 21.7114 21.1667 23C21.1667 24.2887 22.2114 25.3334 23.5001 25.3334Z" fill="#FFFFFB"/>
<path fill-rule="evenodd" clip-rule="evenodd" d="M37.5001 25.3334C38.7887 25.3334 39.8334 24.2887 39.8334 23C39.8334 21.7114 38.7887 20.6667 37.5001 20.6667C36.2114 20.6667 35.1667 21.7114 35.1667 23C35.1667 24.2887 36.2114 25.3334 37.5001 25.3334Z" fill="#FFFFFB"/>
<path opacity="0.9" d="M21.667 37L31.0002 39.5L40.3337 37" stroke="#F9F9F9" stroke-width="2" stroke-linecap="round"/>
<path fill-rule="evenodd" clip-rule="evenodd" d="M30.5001 53.3334C43.3867 53.3334 53.8334 42.8867 53.8334 30C53.8334 17.1134 43.3867 6.66669 30.5001 6.66669C17.6134 6.66669 7.16675 17.1134 7.16675 30C7.16675 42.8867 17.6134 53.3334 30.5001 53.3334Z" stroke="#F9F9F9" stroke-width="2"/>
</g>
</svg>
