<svg width="60" height="60" viewBox="0 0 60 60" fill="none" xmlns="http://www.w3.org/2000/svg">
<g opacity="0.2">
<rect width="60" height="60" rx="30" fill="#BBBBBB"/>
<path fill-rule="evenodd" clip-rule="evenodd" d="M23.0001 25.3334C24.2887 25.3334 25.3334 24.2887 25.3334 23C25.3334 21.7114 24.2887 20.6667 23.0001 20.6667C21.7114 20.6667 20.6667 21.7114 20.6667 23C20.6667 24.2887 21.7114 25.3334 23.0001 25.3334Z" fill="#FFFFFB"/>
<path fill-rule="evenodd" clip-rule="evenodd" d="M37.0001 25.3334C38.2887 25.3334 39.3334 24.2887 39.3334 23C39.3334 21.7114 38.2887 20.6667 37.0001 20.6667C35.7114 20.6667 34.6667 21.7114 34.6667 23C34.6667 24.2887 35.7114 25.3334 37.0001 25.3334Z" fill="#FFFFFB"/>
<path opacity="0.9" d="M20.6667 39.3334C20.6667 39.3334 25.3334 37 29.9926 37.0027C34.6667 37 39.3334 39.3334 39.3334 39.3334" stroke="#F9F9F9" stroke-width="2" stroke-linecap="round"/>
<path fill-rule="evenodd" clip-rule="evenodd" d="M30.0001 53.3334C42.8867 53.3334 53.3334 42.8867 53.3334 30C53.3334 17.1134 42.8867 6.66669 30.0001 6.66669C17.1134 6.66669 6.66675 17.1134 6.66675 30C6.66675 42.8867 17.1134 53.3334 30.0001 53.3334Z" stroke="#F9F9F9" stroke-width="2"/>
</g>
</svg>
