<svg width="276" height="276" viewBox="0 0 276 276" fill="none" xmlns="http://www.w3.org/2000/svg">
<rect width="276" height="276" rx="50" fill="#3A3B49"/>
<path d="M225.144 75.0474C228.982 68.5267 232.882 55.0449 217.774 53.2825C198.889 51.0796 193.779 59.9475 204.068 62.5738C214.357 65.2002 232.092 53.948 227.507 42.6203C223.84 33.5582 217.296 30.9171 214.482 30.7293" stroke="#6EB5FF" stroke-width="2" stroke-dasharray="4 4"/>
<path d="M86.7864 198.251C87.6156 197.993 88.5153 198.094 89.2671 198.529L112.247 211.817C113.182 212.358 113.769 213.345 113.799 214.424C113.828 215.503 113.295 216.52 112.392 217.111L69.956 244.843C68.7905 245.605 67.2599 245.499 66.2108 244.584C65.1617 243.668 64.8498 242.167 65.4464 240.909L84.9021 199.887L84.9748 199.743C85.3595 199.03 86.009 198.493 86.7864 198.251Z" fill="#8DC5FF" stroke="#8DC5FF" stroke-width="6.21739" stroke-linejoin="round"/>
<path d="M208.159 96.0969C209.536 95.209 211.367 95.5436 212.342 96.8608C213.317 98.1781 213.101 100.025 211.85 101.084L88.7349 205.182L70.3723 242.989C69.7525 244.264 68.3481 244.958 66.9583 244.676C65.5685 244.395 64.5458 243.208 64.472 241.792L61.8917 192.238C61.8338 191.126 62.3756 190.068 63.3119 189.464L208.159 96.0969Z" fill="#8DC5FF" stroke="#8DC5FF" stroke-width="6.21739" stroke-linecap="round" stroke-linejoin="round"/>
<path d="M209.098 95.6195C210.198 94.6962 211.786 94.646 212.942 95.4976C214.098 96.3494 214.52 97.882 213.963 99.2053L211.098 98.0002L213.962 99.2073C213.962 99.2084 213.962 99.2102 213.961 99.2123C213.959 99.2166 213.956 99.223 213.953 99.2313C213.946 99.2483 213.935 99.2738 213.921 99.3073C213.892 99.3744 213.85 99.4744 213.794 99.6063C213.683 99.8701 213.519 100.262 213.304 100.772C212.873 101.793 212.24 103.29 211.434 105.196C209.822 109.007 207.513 114.454 204.726 120.994C199.154 134.074 191.67 151.533 184.026 169.042C176.384 186.546 168.574 204.122 162.351 217.429C159.242 224.076 156.512 229.696 154.388 233.719C153.331 235.722 152.394 237.388 151.615 238.603C151.23 239.204 150.838 239.766 150.453 240.223C150.262 240.451 150.026 240.709 149.75 240.946C149.515 241.148 149.036 241.527 148.354 241.736C147.617 241.961 146.929 241.932 146.462 241.875C145.964 241.815 145.48 241.692 145.042 241.554C144.168 241.279 143.192 240.854 142.182 240.355C140.149 239.352 137.608 237.869 134.785 236.122C129.131 232.623 122.005 227.846 114.946 223.201C107.838 218.523 100.788 213.973 95.1463 210.816C92.3134 209.231 89.9462 208.06 88.163 207.395C87.2659 207.061 86.6357 206.9 86.2383 206.846C86.1857 206.839 86.1414 206.837 86.1057 206.834C84.7847 207.353 83.2518 206.914 82.4205 205.717C81.5038 204.397 81.7444 202.596 82.9748 201.562L209.098 95.6195Z" fill="#8DC5FF" stroke="#8DC5FF" stroke-width="6.21739" stroke-linecap="round" stroke-linejoin="round"/>
<path d="M209.441 95.089C210.928 94.5859 212.557 95.2702 213.238 96.6847C213.919 98.0993 213.439 99.8001 212.118 100.649L65.6193 194.746C64.7036 195.335 63.5467 195.401 62.5696 194.922C61.5926 194.443 60.9368 193.487 60.8416 192.403C60.8681 192.705 60.9246 192.4 59.97 191.346C59.1454 190.436 57.9117 189.338 56.3177 188.08C53.1375 185.569 48.9178 182.722 44.6145 179.839C40.3766 177 36.0389 174.112 32.8386 171.627C31.2488 170.392 29.8055 169.156 28.769 167.991C28.2532 167.411 27.7385 166.74 27.3716 166.001C27.018 165.288 26.6411 164.185 26.9129 162.919C27.124 161.937 27.7233 161.315 27.9267 161.111C28.2143 160.822 28.5274 160.586 28.7886 160.404C29.3207 160.035 29.9914 159.656 30.72 159.279C32.1989 158.513 34.2676 157.576 36.792 156.505C41.8596 154.356 49.0032 151.57 57.4981 148.38C74.5 141.997 97.0542 133.947 119.555 126.055C142.06 118.162 164.532 110.42 181.375 104.652C189.797 101.768 196.814 99.3775 201.724 97.7077C204.179 96.8728 206.108 96.218 207.423 95.772C208.081 95.549 208.585 95.3786 208.925 95.2635C209.095 95.206 209.224 95.1622 209.311 95.1329C209.354 95.1183 209.387 95.1069 209.409 95.0995C209.419 95.0959 209.427 95.0932 209.433 95.0914C209.435 95.0904 209.438 95.0895 209.439 95.0891C209.441 95.0901 209.464 95.1553 210.438 98.0333L209.441 95.089Z" fill="#8DC5FF" stroke="#8DC5FF" stroke-width="6.21739" stroke-linecap="round" stroke-linejoin="round"/>
<path d="M110.691 214.508L66.9678 242.307L87.0569 201.253L110.691 214.508Z" fill="#8DC5FF" stroke="#3A3B49" stroke-width="1.55435" stroke-linejoin="round"/>
<path d="M67.5766 241.63L64.9964 192.077L209.843 98.7101L86.2267 203.232L67.5766 241.63Z" fill="#8DC5FF"/>
<path d="M147.445 238.763C142.364 240.318 91.2424 200.39 84.9744 203.943L211.098 98.0002C211.098 98.0002 152.527 237.208 147.445 238.763Z" fill="#8DC5FF"/>
<path d="M66.9679 242.308C66.9679 242.308 77.9424 218.925 84.9744 203.943M84.9744 203.943C91.2424 200.39 142.364 240.318 147.445 238.763C152.527 237.208 211.098 98.0002 211.098 98.0002C211.098 98.0002 134.229 162.57 84.9744 203.943Z" stroke="#3A3B49" stroke-width="1.55435" stroke-linecap="round" stroke-linejoin="round"/>
<path d="M29.9516 163.573C28.9128 168.41 63.3743 185.709 63.9383 192.132L210.437 98.0343C210.437 98.0343 30.9903 158.736 29.9516 163.573Z" fill="#8DC5FF"/>
<path d="M66.5521 242.329C65.5314 222.726 64.9591 211.735 63.9383 192.132M63.9383 192.132C63.3743 185.709 28.9128 168.41 29.9516 163.573C30.9903 158.736 210.437 98.0343 210.437 98.0343C210.437 98.0343 121.15 155.385 63.9383 192.132Z" stroke="#3A3B49" stroke-width="1.55435" stroke-linecap="round" stroke-linejoin="round"/>
</svg>
