<svg width="328" height="195" viewBox="0 0 328 195" fill="none" xmlns="http://www.w3.org/2000/svg">
<path d="M184.912 90.7895C186.466 89.5057 188.628 88.1386 188.724 86.8923C188.791 86.0349 188.3 85.385 187.522 85.3248C186.944 85.28 186.322 85.6631 186.006 86.2504L185.196 85.8266C185.655 84.9495 186.651 84.3947 187.588 84.4673C188.924 84.5709 189.777 85.5998 189.672 86.9657C189.553 88.4912 187.697 89.7917 186.228 90.8914L189.468 91.1425L189.404 91.97L184.948 91.6247L184.912 90.7895ZM193.046 91.4799C194.073 91.5595 194.861 90.4471 194.992 88.7621C195.123 87.0672 194.515 85.8566 193.488 85.777C192.461 85.6974 191.674 86.7999 191.542 88.4948C191.412 90.1798 192.019 91.4003 193.046 91.4799ZM192.981 92.3174C191.416 92.1961 190.427 90.5849 190.595 88.4214C190.763 86.2579 191.988 84.8182 193.553 84.9395C195.118 85.0608 196.107 86.672 195.939 88.8355C195.771 90.999 194.547 92.4387 192.981 92.3174ZM196.747 91.7065C198.301 90.4227 200.463 89.0556 200.559 87.8094C200.626 86.9519 200.134 86.302 199.357 86.2418C198.779 86.197 198.157 86.5801 197.841 87.1674L197.031 86.7436C197.49 85.8665 198.486 85.3117 199.423 85.3843C200.759 85.4879 201.612 86.5168 201.506 87.8827C201.388 89.4082 199.532 90.7087 198.063 91.8085L201.303 92.0595L201.239 92.887L196.782 92.5417L196.747 91.7065ZM203.671 89.7556L202.734 89.5526L203.269 85.7625L207.057 86.0561L206.993 86.8836L204.112 86.6604L203.843 88.5753C204.195 88.4321 204.592 88.3625 204.941 88.3896C206.416 88.5039 207.376 89.5812 207.266 90.997C207.155 92.4327 206.04 93.3593 204.564 93.245C203.408 93.1554 202.481 92.3012 202.307 91.1844L203.24 91.0461C203.346 91.7564 203.915 92.302 204.633 92.3577C205.55 92.4287 206.249 91.8309 206.319 90.9236C206.388 90.0363 205.789 89.348 204.872 89.2769C204.483 89.2468 203.986 89.449 203.671 89.7556ZM214.815 85.8247L215.792 85.9004L215.287 92.4209L214.31 92.3452L214.541 89.3641L212.168 89.1802L212.228 88.4026L214.601 88.5864L214.671 87.6891L212.298 87.5053L212.358 86.7276L214.731 86.9115L214.815 85.8247ZM209.618 91.4099L210.585 91.4849L210.438 93.3792L215.404 93.7639L215.342 94.5615L209.41 94.1019L209.618 91.4099ZM208.935 85.981L209.913 86.0567L209.614 89.9151C210.771 89.9948 211.863 90.0092 213.106 89.8848L213.134 90.6894C211.749 90.8328 210.568 90.8015 209.252 90.6995L208.574 90.647L208.935 85.981ZM220.525 94.3914L219.498 94.3119L222.859 88.0929L219.468 87.8402L219.533 87.0027L223.85 87.3372L223.886 88.1725L220.525 94.3914ZM231.097 87.0863L232.074 87.162L231.674 92.3265L230.697 92.2508L230.727 91.852L229.052 91.7222L229.1 91.1041L230.775 91.2338L231.097 87.0863ZM224.505 89.8352C226.21 89.9673 228.334 90.1219 230.234 90.0685L230.246 90.6913C229.419 90.7476 228.566 90.7517 227.735 90.7275L227.634 92.0336L226.657 91.9579L226.755 90.6917C225.986 90.6521 225.238 90.5942 224.57 90.5424L224.505 89.8352ZM225.648 92.1605L231.65 92.6256L231.502 94.5399L226.487 94.1513L226.435 94.8193L231.72 95.2287L231.665 95.9266L225.404 95.4415L225.559 93.4475L230.584 93.8368L230.63 93.2386L225.595 92.8485L225.648 92.1605ZM227.576 86.9639C228.892 87.0659 229.72 87.6416 229.656 88.4591C229.593 89.2766 228.687 89.7079 227.371 89.606C226.065 89.5048 225.226 88.9383 225.289 88.1207C225.353 87.3032 226.27 86.8627 227.576 86.9639ZM227.524 87.6319C226.756 87.5724 226.238 87.783 226.207 88.1918C226.174 88.6106 226.653 88.8984 227.421 88.9579C228.199 89.0182 228.717 88.8075 228.749 88.3888C228.781 87.98 228.302 87.6921 227.524 87.6319ZM238.205 88.4796L237.645 95.7079L236.699 95.6246L237.179 89.4331L235.906 90.0667L235.537 89.2558L237.268 88.407L238.205 88.4796ZM242.526 88.8144L241.966 96.0427L241.019 95.9593L241.499 89.7679L240.226 90.4015L239.858 89.5906L241.589 88.7417L242.526 88.8144ZM246.29 88.5644C247.616 88.6671 248.539 89.5611 248.45 90.7177C248.359 91.8842 247.31 92.6153 245.984 92.5125C244.658 92.4098 243.743 91.5265 243.834 90.36C243.923 89.2035 244.964 88.4616 246.29 88.5644ZM246.228 89.362C245.45 89.3017 244.836 89.7255 244.781 90.4334C244.725 91.1512 245.268 91.6547 246.046 91.7149C246.833 91.776 247.447 91.3621 247.503 90.6443C247.557 89.9364 247.016 89.423 246.228 89.362ZM250.121 88.5604L251.108 88.6368L250.762 93.1134L249.775 93.0369L250.121 88.5604ZM244.957 93.0749L250.73 93.5222L250.556 95.7655L245.76 95.3939L245.697 96.2114L250.752 96.6031L250.693 97.3708L244.681 96.905L244.859 94.6019L249.635 94.9719L249.693 94.2142L244.898 93.8426L244.957 93.0749Z" fill="#3A3B49" fill-opacity="0.4"/>
<rect width="225.557" height="152.858" rx="7" transform="matrix(0.995777 0.0918031 -0.0945716 0.995518 54.4551 15.0577)" fill="#B1D7FF"/>
<path d="M164.6 102.879C161.426 104.08 157.878 103.754 154.984 101.994L68.4789 49.415C58.5093 43.3553 63.6301 27.9699 75.2605 29.0402L256.658 45.7324C268.288 46.8026 270.429 62.8561 259.492 66.9921L164.6 102.879Z" fill="url(#paint0_linear_320_9646)"/>
<path d="M164.6 102.879C161.426 104.08 157.878 103.754 154.984 101.994L68.4789 49.415C58.5093 43.3553 63.6301 27.9699 75.2605 29.0402L256.658 45.7324C268.288 46.8026 270.429 62.8561 259.492 66.9921L164.6 102.879Z" fill="url(#paint1_linear_320_9646)"/>
<path d="M154.286 89.0158C158.338 86.708 163.398 87.1932 166.922 90.2275L261.317 171.488C269.458 178.497 263.721 191.841 253.015 190.796L50.6329 171.043C39.9461 169.999 36.9561 155.844 46.2988 150.522L154.286 89.0158Z" fill="#95C8FC"/>
<rect width="225.557" height="152.858" rx="7" transform="matrix(0.995777 0.0918031 -0.0945716 0.995518 54.4551 15.0577)" fill="#B1D7FF"/>
<path d="M164.6 102.879C161.426 104.08 157.878 103.754 154.984 101.994L68.4789 49.415C58.5093 43.3553 63.6301 27.9699 75.2605 29.0402L256.658 45.7324C268.288 46.8026 270.429 62.8561 259.492 66.9921L164.6 102.879Z" fill="url(#paint2_linear_320_9646)"/>
<path d="M164.6 102.879C161.426 104.08 157.878 103.754 154.984 101.994L68.4789 49.415C58.5093 43.3553 63.6301 27.9699 75.2605 29.0402L256.658 45.7324C268.288 46.8026 270.429 62.8561 259.492 66.9921L164.6 102.879Z" fill="url(#paint3_linear_320_9646)"/>
<path d="M154.286 89.0158C158.338 86.708 163.398 87.1932 166.922 90.2275L261.317 171.488C269.458 178.497 263.721 191.841 253.015 190.796L50.6329 171.043C39.9461 169.999 36.9561 155.844 46.2988 150.522L154.286 89.0158Z" fill="#95C8FC"/>
<rect x="66.2588" width="204.422" height="45.8682" rx="10" transform="rotate(4.73074 66.2588 0)" fill="#FFFFFC"/>
<defs>
<linearGradient id="paint0_linear_320_9646" x1="170.929" y1="15.1823" x2="203.636" y2="101.915" gradientUnits="userSpaceOnUse">
<stop offset="0.750211" stop-color="#FFFEF1"/>
<stop offset="1" stop-color="#8DC5FF"/>
</linearGradient>
<linearGradient id="paint1_linear_320_9646" x1="93.5" y1="90.582" x2="130.362" y2="29.5555" gradientUnits="userSpaceOnUse">
<stop stop-color="#8DC5FF"/>
<stop offset="0.379808" stop-color="#FFFFFB"/>
</linearGradient>
<linearGradient id="paint2_linear_320_9646" x1="170.929" y1="15.1823" x2="203.636" y2="101.915" gradientUnits="userSpaceOnUse">
<stop offset="0.750211" stop-color="#FFFEF1"/>
<stop offset="1" stop-color="#8DC5FF"/>
</linearGradient>
<linearGradient id="paint3_linear_320_9646" x1="93.5" y1="90.582" x2="130.362" y2="29.5555" gradientUnits="userSpaceOnUse">
<stop stop-color="#8DC5FF"/>
<stop offset="0.379808" stop-color="#FFFFFB"/>
</linearGradient>
</defs>
</svg>
