<svg width="238" height="168" viewBox="0 0 238 168" fill="none" xmlns="http://www.w3.org/2000/svg">
<path d="M231.46 19.4521C235.309 19.8072 238.134 23.2141 237.769 27.0625L224.637 165.299C224.553 166.176 224.308 166.999 223.938 167.745C225.298 163.813 224.53 159.141 220.718 155.859L129.505 77.3389L219.12 42.3564C223.582 40.6147 225.822 36.8924 226.111 33.0439C226.158 32.7682 226.196 32.4888 226.22 32.2051L227.307 19.0684L231.46 19.4521ZM13.1641 6.35645C13.5297 2.50787 16.9463 -0.324477 20.7959 0.0302734L23.7393 0.300781L22.4941 15.3457C22.3671 16.8808 22.5939 18.3638 23.1064 19.7139C23.6586 22.4719 25.3134 25.0714 28.2871 26.8359L110.142 75.4062L5.69922 134.895C0.225406 138.012 -1.01333 144.163 1.04785 148.932C0.270789 147.68 -0.117925 146.173 0.0322266 144.592L13.1641 6.35645Z" fill="#B1D7FF"/>
</svg>
