<svg width="206" height="100" viewBox="0 0 206 100" fill="none" xmlns="http://www.w3.org/2000/svg">
<rect width="206" height="100" fill="#F5F5F5"/>
<path id="Union" d="M2.16737 9.17621C2.62285 3.6722 7.45438 -0.420838 12.9584 0.0346076L196.752 15.2446C202.256 15.7001 206.349 20.5316 205.894 26.0356L203.76 51.8149C203.737 52.0977 203.699 52.3768 203.653 52.6518C203.364 56.5013 201.123 60.2242 196.661 61.9662L102.33 98.7905C99.1746 100.022 95.6311 99.7333 92.724 98.0082L5.82752 46.4467C2.85097 44.6805 1.19558 42.0778 0.644907 39.3168C0.134215 37.9686 -0.0922715 36.4881 0.0345551 34.9555L2.16737 9.17621Z" fill="#FFFFFC"/>
<path id="Subtract" d="M191.46 119.452C195.309 119.807 198.133 123.214 197.768 127.062L184.636 265.299C184.553 266.176 184.308 266.999 183.938 267.745C185.297 263.812 184.53 259.141 180.717 255.859L89.5045 177.339L179.12 142.356C183.581 140.614 185.821 136.892 186.111 133.044C186.157 132.768 186.196 132.488 186.219 132.205L187.306 119.068L191.46 119.452ZM-26.8364 106.356C-26.4707 102.508 -23.054 99.6753 -19.2045 100.03L-16.2612 100.3L-17.5063 115.345C-17.6333 116.881 -17.4065 118.363 -16.894 119.714C-16.3418 122.472 -14.687 125.071 -11.7133 126.836L70.1412 175.406L-34.3012 234.894C-39.7749 238.012 -41.0137 244.162 -38.9526 248.931C-39.7296 247.68 -40.1184 246.173 -39.9682 244.592L-26.8364 106.356Z" fill="#B1D7FF"/>
</svg>
