<svg width="170" height="133" viewBox="0 0 170 133" fill="none" xmlns="http://www.w3.org/2000/svg">
<path d="M158.28 15.0999C158.082 15.2054 157.921 15.368 157.818 15.5666L102.613 121.357C102.062 122.412 100.717 122.756 99.7276 122.094L67.8489 100.765C66.9135 100.139 65.646 100.408 65.0454 101.36L62.7153 105.052C62.5431 105.325 62.3075 105.552 62.0285 105.715L41.3562 117.723C40.0228 118.497 38.3516 117.535 38.3516 115.993V78.706C38.3516 78.0948 38.0721 77.5171 37.5928 77.1378L12.0337 56.9086C10.7516 55.894 11.1626 53.8532 12.7375 53.4139L157.457 13.0473C158.738 12.6901 159.453 14.474 158.28 15.0999ZM62.9996 65.9646C60.875 67.0988 62.1977 70.3288 64.5076 69.6471L89.1421 62.3768C89.3615 62.3121 89.5441 62.5537 89.422 62.7471C89.2771 62.9766 89.5531 63.2387 89.7747 63.0821L155.888 16.378L62.9996 65.9646Z" fill="#A5D1FF"/>
<path d="M155.888 16.378L161.946 24.9539L150.943 7.11519L155.888 16.378ZM89.7747 63.0821L95.833 71.658L89.7747 63.0821ZM89.1421 62.3768L86.17 52.3062L89.1421 62.3768ZM64.5076 69.6471L61.5355 59.5765L64.5076 69.6471ZM62.9996 65.9646L67.9444 75.2274L62.9996 65.9646ZM157.457 13.0473L160.278 23.1612L157.457 13.0473ZM12.7375 53.4139L9.91645 43.3L12.7375 53.4139ZM37.5928 77.1378L44.1092 68.9045L37.5928 77.1378ZM41.3562 117.723L46.6302 126.802L41.3562 117.723ZM62.7153 105.052L53.8356 99.4487L62.7153 105.052ZM62.0285 105.715L56.7545 96.6351L62.0285 105.715ZM67.8489 100.765L73.6877 92.0384L67.8489 100.765ZM65.0454 101.36L73.925 106.964L65.0454 101.36ZM102.613 121.357L93.304 116.499L102.613 121.357ZM99.7276 122.094L93.8888 130.821L99.7276 122.094ZM157.818 15.5666L167.126 20.4242L157.818 15.5666ZM157.818 15.5666L148.509 10.709L93.304 116.499L102.613 121.357L111.922 126.215L167.126 20.4242L157.818 15.5666ZM99.7276 122.094L105.566 113.367L73.6877 92.0384L67.8489 100.765L62.0101 109.492L93.8888 130.821L99.7276 122.094ZM65.0454 101.36L56.1657 95.7565L53.8356 99.4487L62.7153 105.052L71.5949 110.656L73.925 106.964L65.0454 101.36ZM62.0285 105.715L56.7545 96.6351L36.0822 108.643L41.3562 117.723L46.6302 126.802L67.3025 114.794L62.0285 105.715ZM38.3516 115.993H48.8516V78.706H38.3516H27.8516V115.993H38.3516ZM37.5928 77.1378L44.1092 68.9045L18.55 48.6754L12.0337 56.9086L5.5173 65.1419L31.0765 85.3711L37.5928 77.1378ZM12.7375 53.4139L15.5586 63.5279L160.278 23.1612L157.457 13.0473L154.636 2.93338L9.91645 43.3L12.7375 53.4139ZM64.5076 69.6471L67.4797 79.7177L92.1142 72.4474L89.1421 62.3768L86.17 52.3062L61.5355 59.5765L64.5076 69.6471ZM89.7747 63.0821L95.833 71.658L161.946 24.9539L155.888 16.378L149.829 7.80203L83.7164 54.5061L89.7747 63.0821ZM155.888 16.378L150.943 7.11519L58.0549 56.7018L62.9996 65.9646L67.9444 75.2274L160.833 25.6408L155.888 16.378ZM89.422 62.7471L80.5441 57.1406C74.2637 67.0855 86.2262 78.4446 95.833 71.658L89.7747 63.0821L83.7164 54.5061C92.8799 48.0328 104.29 58.8676 98.2999 68.3536L89.422 62.7471ZM89.1421 62.3768L92.1142 72.4474C83.0432 75.1245 75.4942 65.1371 80.5441 57.1406L89.422 62.7471L98.2999 68.3536C103.594 59.9702 95.6798 49.4996 86.17 52.3062L89.1421 62.3768ZM64.5076 69.6471L61.5355 59.5765C71.3523 56.6793 76.9745 70.4068 67.9444 75.2274L62.9996 65.9646L58.0549 56.7018C44.7755 63.7907 53.0432 83.9783 67.4797 79.7177L64.5076 69.6471ZM157.457 13.0473L160.278 23.1612C149.471 26.1757 143.436 11.12 153.336 5.83657L158.28 15.0999L163.224 24.3632C175.469 17.8279 168.005 -0.795477 154.636 2.93338L157.457 13.0473ZM12.0337 56.9086L18.55 48.6754C23.9988 52.9878 22.2518 61.6609 15.5586 63.5279L12.7375 53.4139L9.91645 43.3C0.0734673 46.0455 -2.49554 58.8001 5.5173 65.1419L12.0337 56.9086ZM38.3516 78.706H48.8516C48.8516 74.8858 47.1047 71.2753 44.1092 68.9045L37.5928 77.1378L31.0765 85.3711C29.0395 83.7589 27.8516 81.3038 27.8516 78.706H38.3516ZM41.3562 117.723L36.0822 108.643C41.7488 105.352 48.8516 109.44 48.8516 115.993H38.3516H27.8516C27.8516 125.63 38.2968 131.643 46.6302 126.802L41.3562 117.723ZM62.7153 105.052L53.8356 99.4487C54.5674 98.2892 55.5689 97.3239 56.7545 96.6351L62.0285 105.715L67.3025 114.794C69.0461 113.781 70.5188 112.361 71.5949 110.656L62.7153 105.052ZM67.8489 100.765L73.6877 92.0384C67.8413 88.1269 59.9199 89.8077 56.1657 95.7565L65.0454 101.36L73.925 106.964C71.3722 111.009 65.9856 112.152 62.0101 109.492L67.8489 100.765ZM102.613 121.357L93.304 116.499C95.6447 112.014 101.361 110.554 105.566 113.367L99.7276 122.094L93.8888 130.821C100.073 134.958 108.48 132.811 111.922 126.215L102.613 121.357ZM157.818 15.5666L167.126 20.4242C166.252 22.1002 164.892 23.4731 163.224 24.3632L158.28 15.0999L153.336 5.83657C151.273 6.93759 149.591 8.63582 148.509 10.709L157.818 15.5666Z" fill="#A5D1FF"/>
<path d="M39.2744 77.5L37.3118 116.806C37.2587 117.87 38.6838 118.269 39.1903 117.332L54.7744 88.5" stroke="black" stroke-width="2"/>
<path d="M68.0793 99.713L38.7744 118" stroke="black" stroke-width="2"/>
<path d="M13.2047 52.7148L158.188 12.5867C159.338 12.2682 159.979 13.8699 158.926 14.4325L40.6088 77.6456C39.896 78.0264 39.0241 77.9409 38.399 77.4288L12.4708 56.1895C11.2165 55.162 11.642 53.1473 13.2047 52.7148Z" stroke="black" stroke-width="2"/>
<path d="M55.1565 91.2904L100.756 121.8C101.747 122.463 103.093 122.118 103.643 121.06L159.274 14L55.1104 87.9977C53.9688 88.8087 53.9926 90.5116 55.1565 91.2904Z" stroke="black" stroke-width="2" stroke-linejoin="round"/>
</svg>
