<svg width="230" height="168" viewBox="0 0 230 168" fill="none" xmlns="http://www.w3.org/2000/svg">
<path d="M158.28 50.0993C158.083 50.2048 157.922 50.3675 157.818 50.5661L102.613 156.357C102.063 157.413 100.717 157.756 99.728 157.094L67.8493 135.765C66.9139 135.139 65.6465 135.408 65.0458 136.36L62.7147 140.053C62.5426 140.326 62.3069 140.553 62.028 140.715L41.3556 152.723C40.0223 153.497 38.3511 152.536 38.3511 150.994V113.705C38.3511 113.094 38.0716 112.517 37.5923 112.137L12.034 91.9081C10.752 90.8934 11.163 88.8527 12.7379 88.4134L157.458 48.0465C158.738 47.6893 159.453 49.4733 158.28 50.0993ZM63.0007 100.964C60.8761 102.098 62.1988 105.328 64.5087 104.647L89.1425 97.3763C89.362 97.3115 89.5446 97.5531 89.4224 97.7466C89.2775 97.976 89.5535 98.2381 89.7752 98.0815L155.892 51.3745L63.0007 100.964Z" fill="#B1D7FF"/>
<path d="M155.892 51.3745L161.95 59.9505L150.947 42.1118L155.892 51.3745ZM89.7752 98.0815L95.8335 106.657L89.7752 98.0815ZM89.1425 97.3763L86.1704 87.3057L89.1425 97.3763ZM63.0007 100.964L58.0558 91.7013L63.0007 100.964ZM157.458 48.0465L154.637 37.9326L157.458 48.0465ZM12.034 91.9081L18.5505 83.6749L12.034 91.9081ZM37.5923 112.137L44.1088 103.904L37.5923 112.137ZM41.3556 152.723L46.6296 161.802L41.3556 152.723ZM62.7147 140.053L53.8353 134.449L62.7147 140.053ZM62.028 140.715L56.754 131.636L62.028 140.715ZM67.8493 135.765L73.6882 127.038L67.8493 135.765ZM65.0458 136.36L56.1664 130.755L65.0458 136.36ZM102.613 156.357L111.922 161.215L102.613 156.357ZM99.728 157.094L93.8891 165.821L99.728 157.094ZM157.818 50.5661L148.509 45.7085L157.818 50.5661ZM157.818 50.5661L148.509 45.7085L93.3045 151.5L102.613 156.357L111.922 161.215L167.127 55.4236L157.818 50.5661ZM99.728 157.094L105.567 148.368L73.6882 127.038L67.8493 135.765L62.0103 144.492L93.8891 165.821L99.728 157.094ZM65.0458 136.36L56.1664 130.755L53.8353 134.449L62.7147 140.053L71.5941 145.657L73.9252 141.964L65.0458 136.36ZM62.028 140.715L56.754 131.636L36.0817 143.644L41.3556 152.723L46.6296 161.802L67.302 149.794L62.028 140.715ZM38.3511 150.994H48.8511V113.705H38.3511H27.8511V150.994H38.3511ZM37.5923 112.137L44.1088 103.904L18.5505 83.6749L12.034 91.9081L5.51752 100.141L31.0758 120.37L37.5923 112.137ZM12.7379 88.4134L15.559 98.5273L160.279 58.1605L157.458 48.0465L154.637 37.9326L9.91679 78.2995L12.7379 88.4134ZM64.5087 104.647L67.4808 114.717L92.1147 107.447L89.1425 97.3763L86.1704 87.3057L61.5365 94.576L64.5087 104.647ZM89.7752 98.0815L95.8335 106.657L161.95 59.9505L155.892 51.3745L149.834 42.7986L83.7169 89.5056L89.7752 98.0815ZM155.892 51.3745L150.947 42.1118L58.0558 91.7013L63.0007 100.964L67.9455 110.227L160.837 60.6373L155.892 51.3745ZM89.4224 97.7466L80.5445 92.14C74.2641 102.085 86.2267 113.444 95.8335 106.657L89.7752 98.0815L83.7169 89.5056C92.8803 83.0322 104.291 93.8671 98.3003 103.353L89.4224 97.7466ZM89.1425 97.3763L92.1147 107.447C83.0435 110.124 75.4947 100.136 80.5445 92.14L89.4224 97.7466L98.3003 103.353C103.594 94.9698 95.6804 84.499 86.1704 87.3057L89.1425 97.3763ZM64.5087 104.647L61.5365 94.576C71.3534 91.6787 76.9754 105.406 67.9455 110.227L63.0007 100.964L58.0558 91.7013C44.7767 98.7902 53.0441 118.978 67.4808 114.717L64.5087 104.647ZM157.458 48.0465L160.279 58.1605C149.472 61.1748 143.437 46.12 153.336 40.8362L158.28 50.0993L163.225 59.3624C175.47 52.8266 168.005 34.2038 154.637 37.9326L157.458 48.0465ZM12.034 91.9081L18.5505 83.6749C23.999 87.9874 22.2522 96.6604 15.559 98.5273L12.7379 88.4134L9.91679 78.2995C0.0737953 81.045 -2.49504 93.7994 5.51752 100.141L12.034 91.9081ZM38.3511 113.705H48.8511C48.8511 109.885 47.1042 106.275 44.1088 103.904L37.5923 112.137L31.0758 120.37C29.0389 118.758 27.8511 116.303 27.8511 113.705H38.3511ZM41.3556 152.723L36.0817 143.644C41.7483 140.352 48.8511 144.44 48.8511 150.994H38.3511H27.8511C27.8511 160.631 38.2963 166.643 46.6296 161.802L41.3556 152.723ZM62.7147 140.053L53.8353 134.449C54.5671 133.289 55.5685 132.324 56.754 131.636L62.028 140.715L67.302 149.794C69.0454 148.782 70.518 147.362 71.5941 145.657L62.7147 140.053ZM67.8493 135.765L73.6882 127.038C67.842 123.126 59.9207 124.807 56.1664 130.755L65.0458 136.36L73.9252 141.964C71.3723 146.009 65.9858 147.151 62.0103 144.492L67.8493 135.765ZM102.613 156.357L93.3045 151.5C95.6451 147.014 101.362 145.554 105.567 148.368L99.728 157.094L93.8891 165.821C100.073 169.959 108.48 167.811 111.922 161.215L102.613 156.357ZM157.818 50.5661L167.127 55.4236C166.252 57.0995 164.892 58.4723 163.225 59.3624L158.28 50.0993L153.336 40.8362C151.273 41.9373 149.591 43.6354 148.509 45.7085L157.818 50.5661Z" fill="#B1D7FF"/>
<path d="M39.2744 112.5L37.3118 151.806C37.2587 152.87 38.6838 153.269 39.1903 152.332L54.7744 123.5" stroke="#3A3B49" stroke-width="2"/>
<path d="M68.0793 134.713L38.7744 153" stroke="#3A3B49" stroke-width="2"/>
<path d="M13.2047 87.7148L158.188 47.5867C159.338 47.2682 159.979 48.8699 158.926 49.4325L40.6088 112.646C39.896 113.026 39.0241 112.941 38.399 112.429L12.4708 91.1895C11.2165 90.162 11.642 88.1473 13.2047 87.7148Z" fill="#B1D7FF" stroke="#3A3B49" stroke-width="2"/>
<path d="M55.1565 126.29L100.756 156.8C101.747 157.463 103.093 157.118 103.643 156.06L159.274 49L55.1104 122.998C53.9688 123.809 53.9926 125.512 55.1565 126.29Z" fill="#B1D7FF" stroke="#3A3B49" stroke-width="2" stroke-linejoin="round"/>
<path d="M183.293 53.7131C193.89 52.9927 212.603 46.8262 202.671 27.924C190.257 4.29629 175.931 5.40297 181.043 19.4065C186.154 33.4101 213.248 45.0419 222.74 30.7522C230.333 19.3204 228.207 9.64435 226.195 6.23529" stroke="#5B9BDD" stroke-width="2" stroke-dasharray="4 4"/>
</svg>
