<svg width="181" height="193" viewBox="0 0 181 193" fill="none" xmlns="http://www.w3.org/2000/svg">
<path d="M162.05 46.9248C165.889 40.4042 169.788 26.9223 154.68 25.16C135.796 22.9571 130.685 31.825 140.974 34.4513C151.264 37.0776 168.998 25.8255 164.414 14.4978C160.746 5.43564 154.202 2.79456 151.388 2.60679" stroke="#6EB5FF" stroke-width="2" stroke-dasharray="4 4"/>
<path d="M50.895 149.574C51.9383 149.249 53.0702 149.376 54.016 149.923L71.4506 160.004C72.6262 160.684 73.3649 161.926 73.4021 163.283C73.4391 164.641 72.7689 165.921 71.6321 166.664L39.4375 187.704C37.9712 188.662 36.0465 188.528 34.7266 187.377C33.4067 186.225 33.0127 184.336 33.7632 182.754L48.5243 151.633L48.6165 151.45C49.1005 150.553 49.9172 149.878 50.895 149.574Z" fill="#8DC5FF" stroke="#8DC5FF" stroke-width="7.82238" stroke-linejoin="round"/>
<path d="M142.597 72.2513C144.33 71.1343 146.632 71.5551 147.859 73.2123C149.086 74.8696 148.815 77.1947 147.241 78.5261L54.0882 157.289L40.3016 185.676C39.5219 187.281 37.7545 188.154 36.0058 187.8C34.2571 187.445 32.9702 185.952 32.8773 184.171L30.9197 146.576C30.8469 145.176 31.5286 143.845 32.7065 143.086L142.597 72.2513Z" fill="#8DC5FF" stroke="#8DC5FF" stroke-width="7.82238" stroke-linecap="round" stroke-linejoin="round"/>
<path d="M143.152 72.0047C144.535 70.8433 146.533 70.7802 147.987 71.8517C149.441 72.9235 149.972 74.8517 149.272 76.5168L145.667 75L149.272 76.5178C149.271 76.5186 149.271 76.5202 149.27 76.5218C149.269 76.525 149.267 76.5303 149.264 76.5368C149.259 76.5496 149.25 76.5686 149.24 76.5938C149.218 76.6448 149.186 76.7215 149.144 76.8217C149.059 77.0221 148.934 77.3193 148.77 77.7066C148.444 78.4815 147.964 79.6179 147.352 81.0642C146.129 83.9569 144.376 88.0899 142.262 93.0531C138.033 102.979 132.353 116.228 126.552 129.518C120.753 142.801 114.821 156.151 110.091 166.264C107.729 171.314 105.645 175.604 104.017 178.69C103.208 180.222 102.473 181.53 101.847 182.507C101.54 182.987 101.201 183.477 100.848 183.898C100.672 184.107 100.432 184.371 100.137 184.624C99.8941 184.834 99.3381 185.281 98.5202 185.531C97.6719 185.79 96.9087 185.75 96.4439 185.694C95.9404 185.633 95.474 185.512 95.0864 185.39C94.3139 185.147 93.493 184.785 92.6963 184.392C91.0846 183.596 89.1061 182.44 86.9543 181.108C82.6405 178.438 77.2018 174.793 71.8663 171.282C66.4691 167.731 61.1665 164.308 56.9416 161.944C54.814 160.754 53.0995 159.912 51.8587 159.449C51.4457 159.295 51.1498 159.209 50.9558 159.162C49.4071 159.561 47.722 158.977 46.7696 157.606C45.6164 155.946 45.9187 153.68 47.4666 152.38L143.152 72.0047Z" fill="#8DC5FF" stroke="#8DC5FF" stroke-width="7.82238" stroke-linecap="round" stroke-linejoin="round"/>
<path d="M143.913 71.3217C145.784 70.6887 147.834 71.5498 148.691 73.3298C149.547 75.1098 148.942 77.2495 147.28 78.3172L36.1369 149.706C34.9848 150.446 33.5295 150.529 32.3004 149.926C31.2321 149.402 30.4699 148.425 30.2099 147.283C30.1467 147.196 30.0384 147.056 29.8623 146.861C29.3214 146.264 28.4621 145.493 27.2791 144.559C24.9233 142.699 21.7758 140.575 18.4986 138.379C15.3035 136.239 11.9579 134.012 9.4765 132.085C8.24895 131.132 7.06336 130.124 6.18081 129.132C5.7427 128.64 5.25421 128.014 4.8904 127.281C4.54312 126.581 4.10516 125.369 4.41458 123.927L4.46865 123.707C4.76124 122.638 5.41065 121.978 5.60267 121.785C5.91365 121.473 6.23565 121.233 6.47188 121.069C6.95671 120.733 7.53358 120.409 8.1079 120.112C9.28349 119.503 10.8961 118.774 12.8216 117.957C16.6969 116.314 22.1414 114.19 28.5914 111.769C41.5065 106.92 58.6305 100.808 75.7035 94.8202C92.7825 88.8301 109.834 82.9551 122.615 78.5786C129.006 76.3902 134.33 74.5767 138.056 73.3096C139.919 72.676 141.383 72.179 142.381 71.8405C142.88 71.6713 143.263 71.541 143.521 71.4536C143.65 71.4099 143.748 71.3774 143.814 71.3552C143.847 71.3441 143.871 71.3354 143.888 71.3298C143.896 71.327 143.903 71.3244 143.907 71.3229C143.909 71.3224 143.91 71.3221 143.911 71.3218C143.912 71.3214 143.912 71.3213 145.166 75.0262L143.913 71.3217Z" fill="#8DC5FF" stroke="#8DC5FF" stroke-width="7.82238" stroke-linecap="round" stroke-linejoin="round"/>
<path d="M69.4931 163.391L36.322 184.481L51.5629 153.334L69.4931 163.391Z" fill="#8DC5FF" stroke="#3A3B49" stroke-width="1.9556" stroke-linejoin="round"/>
<path d="M36.7837 183.967L34.8262 146.373L144.716 75.5391L50.9328 154.836L36.7837 183.967Z" fill="#8DC5FF"/>
<path d="M97.3766 181.791C93.5216 182.971 54.7376 152.679 49.9824 155.375L145.668 75C145.668 75 101.232 180.611 97.3766 181.791Z" fill="#8DC5FF"/>
<path d="M36.3215 184.481C36.3215 184.481 44.6475 166.741 49.9824 155.375M49.9824 155.375C54.7376 152.679 93.5216 182.971 97.3766 181.791C101.232 180.611 145.668 75 145.668 75C145.668 75 87.3498 123.987 49.9824 155.375Z" stroke="#3A3B49" stroke-width="1.9556" stroke-linecap="round" stroke-linejoin="round"/>
<path d="M8.23909 124.748C7.45106 128.418 33.5956 141.541 34.0235 146.415L145.166 75.0261C145.166 75.0261 9.02713 121.078 8.23909 124.748Z" fill="#8DC5FF"/>
<path d="M36.0065 184.497C35.2321 169.625 34.7979 161.287 34.0235 146.415M34.0235 146.415C33.5956 141.541 7.45106 128.418 8.23909 124.748C9.02713 121.078 145.166 75.0261 145.166 75.0261C145.166 75.0261 77.4275 118.536 34.0235 146.415Z" stroke="#3A3B49" stroke-width="1.9556" stroke-linecap="round" stroke-linejoin="round"/>
</svg>
