<svg width="170" height="208" viewBox="0 0 170 208" fill="none" xmlns="http://www.w3.org/2000/svg">
<path d="M158.28 15.0994C158.083 15.2048 157.922 15.3675 157.818 15.5661L102.613 121.357C102.063 122.413 100.718 122.756 99.7281 122.094L67.8494 100.765C66.914 100.139 65.6466 100.408 65.0459 101.36L62.7149 105.053C62.5427 105.326 62.3071 105.553 62.0281 105.715L41.3558 117.723C40.0224 118.498 38.3512 117.536 38.3512 115.994V78.7055C38.3512 78.0943 38.0717 77.5166 37.5924 77.1373L12.0341 56.9081C10.7521 55.8934 11.1631 53.8527 12.738 53.4134L157.458 13.0466C158.738 12.6894 159.453 14.4733 158.28 15.0994ZM63.0008 65.9641C60.8762 67.0983 62.1989 70.3283 64.5088 69.6466L89.1426 62.3763C89.3621 62.3116 89.5447 62.5532 89.4225 62.7466C89.2776 62.9761 89.5536 63.2382 89.7753 63.0816L155.892 16.3745L63.0008 65.9641Z" fill="#A5D1FF"/>
<path d="M155.892 16.3745L161.951 24.9505L150.947 7.1118L155.892 16.3745ZM89.7753 63.0816L95.8336 71.6575L89.7753 63.0816ZM89.1426 62.3763L86.1705 52.3058L89.1426 62.3763ZM63.0008 65.9641L58.0559 56.7013L63.0008 65.9641ZM157.458 13.0466L154.637 2.93265L157.458 13.0466ZM12.0341 56.9081L18.5506 48.6749L12.0341 56.9081ZM37.5924 77.1373L44.1089 68.9041L37.5924 77.1373ZM41.3558 117.723L46.6297 126.802L41.3558 117.723ZM62.7149 105.053L53.8355 99.4489L62.7149 105.053ZM62.0281 105.715L56.7541 96.6356L62.0281 105.715ZM67.8494 100.765L73.6883 92.038L67.8494 100.765ZM65.0459 101.36L56.1665 95.7555L65.0459 101.36ZM102.613 121.357L111.922 126.215L102.613 121.357ZM99.7281 122.094L93.8892 130.821L99.7281 122.094ZM157.818 15.5661L148.509 10.7085L157.818 15.5661ZM157.818 15.5661L148.509 10.7085L93.3046 116.5L102.613 121.357L111.922 126.215L167.127 20.4237L157.818 15.5661ZM99.7281 122.094L105.567 113.368L73.6883 92.038L67.8494 100.765L62.0104 109.492L93.8892 130.821L99.7281 122.094ZM65.0459 101.36L56.1665 95.7555L53.8355 99.4489L62.7149 105.053L71.5943 110.657L73.9253 106.964L65.0459 101.36ZM62.0281 105.715L56.7541 96.6356L36.0818 108.644L41.3558 117.723L46.6297 126.802L67.3021 114.794L62.0281 105.715ZM38.3512 115.994H48.8512V78.7055H38.3512H27.8512V115.994H38.3512ZM37.5924 77.1373L44.1089 68.9041L18.5506 48.6749L12.0341 56.9081L5.51763 65.1413L31.0759 85.3705L37.5924 77.1373ZM12.738 53.4134L15.5591 63.5274L160.279 23.1605L157.458 13.0466L154.637 2.93265L9.91691 43.2995L12.738 53.4134ZM64.5088 69.6466L67.481 79.7171L92.1148 72.4469L89.1426 62.3763L86.1705 52.3058L61.5366 59.576L64.5088 69.6466ZM89.7753 63.0816L95.8336 71.6575L161.951 24.9505L155.892 16.3745L149.834 7.7986L83.717 54.5056L89.7753 63.0816ZM155.892 16.3745L150.947 7.1118L58.0559 56.7013L63.0008 65.9641L67.9457 75.2268L160.837 25.6373L155.892 16.3745ZM89.4225 62.7466L80.5446 57.1401C74.2643 67.085 86.2268 78.4441 95.8336 71.6575L89.7753 63.0816L83.717 54.5056C92.8805 48.0323 104.291 58.8671 98.3004 68.3531L89.4225 62.7466ZM89.1426 62.3763L92.1148 72.4469C83.0437 75.1241 75.4948 65.1365 80.5446 57.1401L89.4225 62.7466L98.3004 68.3531C103.595 59.9699 95.6805 49.499 86.1705 52.3058L89.1426 62.3763ZM64.5088 69.6466L61.5366 59.576C71.3535 56.6787 76.9755 70.4063 67.9457 75.2268L63.0008 65.9641L58.0559 56.7013C44.7768 63.7903 53.0442 83.9779 67.481 79.7171L64.5088 69.6466ZM157.458 13.0466L160.279 23.1605C149.472 26.1749 143.437 11.1201 153.336 5.83626L158.28 15.0994L163.225 24.3625C175.47 17.8266 168.005 -0.796123 154.637 2.93265L157.458 13.0466ZM12.0341 56.9081L18.5506 48.6749C23.9991 52.9874 22.2523 61.6604 15.5591 63.5274L12.738 53.4134L9.91691 43.2995C0.0739117 46.045 -2.49493 58.7995 5.51763 65.1413L12.0341 56.9081ZM38.3512 78.7055H48.8512C48.8512 74.8854 47.1043 71.2749 44.1089 68.9041L37.5924 77.1373L31.0759 85.3705C29.039 83.7583 27.8512 81.3032 27.8512 78.7055H38.3512ZM41.3558 117.723L36.0818 108.644C41.7484 105.352 48.8512 109.44 48.8512 115.994H38.3512H27.8512C27.8512 125.631 38.2964 131.643 46.6297 126.802L41.3558 117.723ZM62.7149 105.053L53.8355 99.4489C54.5672 98.2894 55.5686 97.3242 56.7541 96.6356L62.0281 105.715L67.3021 114.794C69.0455 113.782 70.5181 112.362 71.5943 110.657L62.7149 105.053ZM67.8494 100.765L73.6883 92.038C67.8421 88.1264 59.9208 89.8071 56.1665 95.7555L65.0459 101.36L73.9253 106.964C71.3724 111.009 65.9859 112.152 62.0104 109.492L67.8494 100.765ZM102.613 121.357L93.3046 116.5C95.6452 112.014 101.362 110.554 105.567 113.368L99.7281 122.094L93.8892 130.821C100.073 134.959 108.48 132.811 111.922 126.215L102.613 121.357ZM157.818 15.5661L167.127 20.4237C166.252 22.0995 164.892 23.4724 163.225 24.3625L158.28 15.0994L153.336 5.83626C151.273 6.9373 149.591 8.63547 148.509 10.7085L157.818 15.5661Z" fill="#A5D1FF"/>
<path d="M39.2744 77.5L37.3118 116.806C37.2587 117.87 38.6838 118.269 39.1903 117.332L54.7744 88.5" stroke="black" stroke-width="2"/>
<path d="M68.0793 99.713L38.7744 118" stroke="black" stroke-width="2"/>
<path d="M13.2047 52.7148L158.188 12.5867C159.338 12.2682 159.979 13.8699 158.926 14.4325L40.6088 77.6456C39.896 78.0264 39.0241 77.9409 38.399 77.4288L12.4708 56.1895C11.2165 55.162 11.642 53.1473 13.2047 52.7148Z" stroke="black" stroke-width="2"/>
<path d="M55.1565 91.2904L100.756 121.8C101.747 122.463 103.093 122.118 103.643 121.06L159.274 14L55.1104 87.9977C53.9688 88.8087 53.9926 90.5116 55.1565 91.2904Z" stroke="black" stroke-width="2" stroke-linejoin="round"/>
<path d="M29.7054 142.367C23.4122 150.924 16.0373 169.193 36.8833 173.816C62.9409 179.595 71.3465 167.942 57.3534 162.802C43.3603 157.662 16.9832 170.838 21.7647 187.313C25.5898 200.493 34.3511 205.118 38.2536 205.783" stroke="#6EB5FF" stroke-width="2" stroke-dasharray="4 4"/>
</svg>
