<svg width="198" height="152" viewBox="0 0 198 152" fill="none" xmlns="http://www.w3.org/2000/svg">
<path d="M53.5374 27.328C59.0119 28.0554 62.8606 33.0831 62.1335 38.5577L61.6552 42.1579L131.318 51.4118C136.792 52.139 140.641 57.1667 139.914 62.6415L130.68 132.151C129.953 137.626 124.925 141.474 119.451 140.747L19.9128 127.525C14.4382 126.797 10.5896 121.77 11.3167 116.295L22.3453 33.2723C23.0727 27.7977 28.1003 23.9489 33.575 24.6762L53.5374 27.328Z" fill="#B1D7FF"/>
<path d="M53.5374 27.328L54.9203 16.9194L54.92 16.9194L53.5374 27.328ZM62.1335 38.5577L72.542 39.9404L72.5421 39.9401L62.1335 38.5577ZM61.6552 42.1579L51.2467 40.7752L49.864 51.1838L60.2726 52.5665L61.6552 42.1579ZM131.318 51.4118L129.935 61.8203L131.318 51.4118ZM139.914 62.6415L150.322 64.0242L139.914 62.6415ZM130.68 132.151L141.089 133.534L141.089 133.534L130.68 132.151ZM19.9128 127.525L18.5301 137.933L18.5301 137.933L19.9128 127.525ZM11.3167 116.295L0.908127 114.912L0.908082 114.913L11.3167 116.295ZM22.3453 33.2723L11.9368 31.8894L11.9367 31.8896L22.3453 33.2723ZM53.5374 27.328L52.1544 37.7365C51.8808 37.7001 51.6885 37.4491 51.7249 37.1753L62.1335 38.5577L72.5421 39.9401C74.0327 28.7171 66.143 18.4106 54.9203 16.9194L53.5374 27.328ZM62.1335 38.5577L51.7249 37.175L51.2467 40.7752L61.6552 42.1579L72.0638 43.5406L72.542 39.9404L62.1335 38.5577ZM61.6552 42.1579L60.2726 52.5665L129.935 61.8203L131.318 51.4118L132.7 41.0032L63.0379 31.7493L61.6552 42.1579ZM131.318 51.4118L129.935 61.8203C129.661 61.784 129.469 61.5326 129.505 61.2588L139.914 62.6415L150.322 64.0242C151.813 52.8009 143.924 42.4941 132.7 41.0032L131.318 51.4118ZM139.914 62.6415L129.505 61.2588L120.272 130.768L130.68 132.151L141.089 133.534L150.322 64.0242L139.914 62.6415ZM130.68 132.151L120.272 130.768C120.308 130.495 120.559 130.302 120.833 130.339L119.451 140.747L118.068 151.156C129.291 152.647 139.598 144.756 141.089 133.534L130.68 132.151ZM119.451 140.747L120.833 130.339L21.2955 117.116L19.9128 127.525L18.5301 137.933L118.068 151.156L119.451 140.747ZM19.9128 127.525L21.2955 117.116C21.5696 117.153 21.7616 117.404 21.7253 117.677L11.3167 116.295L0.908082 114.913C-0.582341 126.135 7.30672 136.442 18.5301 137.933L19.9128 127.525ZM11.3167 116.295L21.7253 117.678L32.7539 34.655L22.3453 33.2723L11.9367 31.8896L0.908127 114.912L11.3167 116.295ZM22.3453 33.2723L32.7538 34.6552C32.7175 34.9286 32.4664 35.1212 32.1924 35.0848L33.575 24.6762L34.9577 14.2676C23.7343 12.7767 13.4278 20.6667 11.9368 31.8894L22.3453 33.2723ZM33.575 24.6762L32.1924 35.0848L52.1547 37.7365L53.5374 27.328L54.92 16.9194L34.9577 14.2676L33.575 24.6762Z" fill="#B1D7FF"/>
<mask id="path-3-inside-1_319_3018" fill="white">
<path d="M54.1354 25C59.6101 25.7273 63.4587 30.755 62.7315 36.2297L61.9783 41.8996L131.405 51.1221C136.879 51.8494 140.728 56.8771 140.001 62.3518L130.781 131.76C130.053 137.234 125.026 141.083 119.551 140.356L20.0132 127.133C14.5386 126.406 10.6901 121.378 11.4171 115.904L21.9539 36.5828L22.0014 36.5891L22.7545 30.9192C23.4818 25.4445 28.5096 21.596 33.9843 22.3231L54.1354 25Z"/>
</mask>
<path d="M54.1354 25L54.3988 23.0174L54.3988 23.0174L54.1354 25ZM61.9783 41.8996L59.9957 41.6363L59.7324 43.6188L61.7149 43.8822L61.9783 41.8996ZM130.781 131.76L132.763 132.023L132.763 132.023L130.781 131.76ZM20.0132 127.133L19.7498 129.116L19.7498 129.116L20.0132 127.133ZM11.4171 115.904L9.43449 115.64L9.43448 115.64L11.4171 115.904ZM21.9539 36.5828L22.2173 34.6003L20.2347 34.3369L19.9713 36.3195L21.9539 36.5828ZM22.0014 36.5891L21.738 38.5717L23.7206 38.8351L23.9839 36.8525L22.0014 36.5891ZM33.9843 22.3231L34.2476 20.3405L34.2476 20.3405L33.9843 22.3231ZM54.1354 25L53.872 26.9825C58.2518 27.5644 61.3307 31.5866 60.7489 35.9663L62.7315 36.2297L64.7141 36.4931C65.5868 29.9234 60.9683 23.8902 54.3988 23.0174L54.1354 25ZM62.7315 36.2297L60.7489 35.9663L59.9957 41.6363L61.9783 41.8996L63.9609 42.163L64.7141 36.4931L62.7315 36.2297ZM61.9783 41.8996L61.7149 43.8822L131.141 53.1047L131.405 51.1221L131.668 49.1395L62.2417 39.917L61.9783 41.8996ZM131.405 51.1221L131.141 53.1047C135.521 53.6865 138.6 57.7087 138.018 62.0885L140.001 62.3518L141.983 62.6152C142.856 56.0455 138.238 50.0122 131.668 49.1395L131.405 51.1221ZM140.001 62.3518L138.018 62.0885L128.798 131.496L130.781 131.76L132.763 132.023L141.983 62.6152L140.001 62.3518ZM130.781 131.76L128.798 131.496C128.216 135.876 124.194 138.955 119.814 138.373L119.551 140.356L119.288 142.338C125.857 143.211 131.89 138.592 132.763 132.023L130.781 131.76ZM119.551 140.356L119.814 138.373L20.2765 125.151L20.0132 127.133L19.7498 129.116L119.288 142.338L119.551 140.356ZM20.0132 127.133L20.2766 125.151C15.897 124.569 12.8181 120.547 13.3997 116.167L11.4171 115.904L9.43448 115.64C8.56213 122.21 13.1802 128.243 19.7498 129.116L20.0132 127.133ZM11.4171 115.904L13.3997 116.167L23.9365 36.8462L21.9539 36.5828L19.9713 36.3195L9.43449 115.64L11.4171 115.904ZM21.9539 36.5828L21.6906 38.5654L21.738 38.5717L22.0014 36.5891L22.2647 34.6066L22.2173 34.6003L21.9539 36.5828ZM22.0014 36.5891L23.9839 36.8525L24.7371 31.1826L22.7545 30.9192L20.772 30.6559L20.0188 36.3258L22.0014 36.5891ZM22.7545 30.9192L24.7371 31.1826C25.3189 26.8029 29.3412 23.724 33.721 24.3057L33.9843 22.3231L34.2476 20.3405C27.6781 19.468 21.6447 24.0862 20.772 30.6559L22.7545 30.9192ZM33.9843 22.3231L33.7209 24.3057L53.872 26.9825L54.1354 25L54.3988 23.0174L34.2476 20.3405L33.9843 22.3231Z" fill="#3A3B49" mask="url(#path-3-inside-1_319_3018)"/>
<line x1="21.9339" y1="37.6393" x2="62.8886" y2="42.998" stroke="#3A3B49" stroke-width="2"/>
<rect width="71.0176" height="46.7609" rx="4.378" transform="matrix(0.913485 -0.406872 0.399346 0.9168 107.821 35.4873)" fill="#8DC5FF" stroke="#8DC5FF" stroke-width="14.3"/>
<rect x="1.31283" y="0.509928" width="69.0176" height="44.7609" rx="6.67721" transform="matrix(0.913485 -0.406872 0.399346 0.9168 107.931 36.2133)" stroke="#3A3B49" stroke-width="2"/>
<path d="M113.673 37.2642L147.429 41.9583C148.913 42.1646 150.387 41.523 151.248 40.2967L171.603 11.2845" stroke="#3A3B49" stroke-width="2" stroke-linecap="round"/>
</svg>
