<svg width="279" height="268" viewBox="0 0 279 268" fill="none" xmlns="http://www.w3.org/2000/svg">
<path d="M161.969 267.951V142.137L175.969 138.951V267.951H161.969Z" fill="#B1D7FF"/>
<path d="M175.969 267.951V138.981L193.969 135.951V267.951H175.969Z" fill="#8CBFF4"/>
<path d="M262.437 126.051L137.037 149.151L95.2369 2.30134C117.604 2.11801 172.457 -0.338634 210.737 0.101366C249.017 0.541366 267.776 32.5515 267.937 50.7015C268.12 71.4181 268.377 117.361 267.937 120.001C267.497 122.641 264.087 125.135 262.437 126.051Z" fill="#B1D7FF"/>
<path d="M262.35 125.999L136.4 149.101L137.5 57.8012L267.85 50.6487C268.033 71.3654 268.29 117.309 267.85 119.949C267.41 122.589 264 125.082 262.35 125.999Z" fill="#B1D7FF"/>
<path d="M17.1656 212.58C19.5625 216.294 23.5033 219.641 29.8492 221.93C53.409 230.431 80.4414 221.541 92.2893 206.295L132.394 150.713L51.9116 128.864L19.5554 178.343C17.263 182.198 13.5981 191.103 13.7106 200.06C13.7664 204.507 14.7507 208.837 17.1656 212.58Z" fill="#B1D7FF" stroke="#B1D7FF" stroke-width="5.5"/>
<path d="M53.9779 35.5287C54.8947 24.53 67.8145 3.99747 95.683 5.04919C109.226 5.56037 119.007 12.6819 125.485 21.5258C132.024 30.4538 135.007 40.8938 135.007 47.4008C135.007 67.2262 134.69 92.6185 134.372 113.064C134.214 123.284 134.055 132.265 133.936 138.691C133.885 141.464 133.84 143.761 133.807 145.476L53.3588 123.919C53.3534 123.771 53.3479 123.614 53.3422 123.451C53.2854 121.839 53.2073 119.497 53.1224 116.579C52.9527 110.744 52.7562 102.608 52.6478 93.4115C52.4308 74.9914 52.571 52.4139 53.9779 35.5287Z" fill="#9CCBFD" stroke="#B1D7FF" stroke-width="5.5"/>
<path d="M131.9 100.049L56 120.949L130.8 141.299L131.9 100.049Z" fill="#78B4F3"/>
<path d="M132 95.6645L70.0556 95.6645C67.7607 95.6645 66.9988 98.7377 69.0279 99.8097L131 132.549L132 95.6645Z" fill="#FFFEF1"/>
</svg>
