<svg width="154" height="126" viewBox="0 0 154 126" fill="none" xmlns="http://www.w3.org/2000/svg">
<path d="M50.895 82.5739C51.9383 82.2491 53.0702 82.3759 54.016 82.9228L71.4506 93.0045C72.6262 93.6844 73.3649 94.9259 73.4021 96.2834C73.4391 97.6411 72.7689 98.9211 71.6321 99.6642L39.4375 120.704C37.9712 121.662 36.0465 121.528 34.7266 120.377C33.4067 119.225 33.0127 117.336 33.7632 115.754L48.5243 84.6326L48.6165 84.4498C49.1005 83.5534 49.9172 82.8784 50.895 82.5739Z" fill="#8DC5FF" stroke="#8DC5FF" stroke-width="7.82238" stroke-linejoin="round"/>
<path d="M142.597 5.25125C144.33 4.13434 146.632 4.55511 147.859 6.21232C149.086 7.86962 148.815 10.1947 147.241 11.5261L54.0882 90.289L40.3016 118.676C39.5219 120.281 37.7545 121.154 36.0058 120.8C34.2571 120.445 32.9702 118.952 32.8773 117.171L30.9197 79.576C30.8469 78.1764 31.5286 76.8452 32.7065 76.0858L142.597 5.25125Z" fill="#8DC5FF" stroke="#8DC5FF" stroke-width="7.82238" stroke-linecap="round" stroke-linejoin="round"/>
<path d="M143.152 5.00471C144.535 3.84328 146.533 3.78018 147.987 4.85169C149.441 5.92353 149.972 7.85173 149.272 9.5168L145.667 8.00002L149.272 9.51777C149.271 9.51858 149.271 9.52018 149.27 9.52177C149.269 9.52505 149.267 9.5303 149.264 9.53676C149.259 9.54962 149.25 9.56856 149.24 9.59377C149.218 9.6448 149.186 9.72151 149.144 9.82171C149.059 10.0221 148.934 10.3193 148.77 10.7066C148.444 11.4815 147.964 12.6179 147.352 14.0642C146.129 16.9569 144.376 21.0899 142.262 26.0531C138.033 35.9786 132.353 49.2285 126.552 62.518C120.753 75.8008 114.821 89.1505 110.091 99.2645C107.729 104.314 105.645 108.604 104.017 111.69C103.208 113.222 102.473 114.53 101.847 115.507C101.54 115.987 101.201 116.477 100.848 116.898C100.672 117.107 100.432 117.371 100.137 117.624C99.8941 117.834 99.3381 118.281 98.5202 118.531C97.6719 118.79 96.9087 118.75 96.4439 118.694C95.9404 118.633 95.474 118.512 95.0864 118.39C94.3139 118.147 93.493 117.785 92.6963 117.392C91.0846 116.596 89.1061 115.44 86.9543 114.108C82.6405 111.438 77.2018 107.793 71.8663 104.282C66.4691 100.731 61.1665 97.3083 56.9416 94.9443C54.814 93.7538 53.0995 92.9121 51.8587 92.4494C51.4457 92.2953 51.1498 92.2089 50.9558 92.1619C49.4071 92.5608 47.722 91.9769 46.7696 90.606C45.6164 88.9457 45.9187 86.6803 47.4666 85.3801L143.152 5.00471Z" fill="#8DC5FF" stroke="#8DC5FF" stroke-width="7.82238" stroke-linecap="round" stroke-linejoin="round"/>
<path d="M143.913 4.32166C145.784 3.68866 147.834 4.54982 148.691 6.32983C149.547 8.10982 148.942 10.2495 147.28 11.3172L36.1369 82.7059C34.9848 83.4456 33.5295 83.5292 32.3004 82.9262C31.2321 82.402 30.4699 81.4252 30.2099 80.2833C30.1467 80.1956 30.0384 80.0557 29.8623 79.8613C29.3214 79.2644 28.4621 78.4929 27.2791 77.5589C24.9233 75.6989 21.7758 73.5748 18.4986 71.3792C15.3035 69.2386 11.9579 67.012 9.4765 65.085C8.24895 64.1317 7.06336 63.124 6.18081 62.1322C5.7427 61.6398 5.25421 61.014 4.8904 60.2808C4.54312 59.5809 4.10516 58.3685 4.41458 56.927L4.46865 56.7071C4.76124 55.6377 5.41065 54.978 5.60267 54.7852C5.91365 54.4729 6.23565 54.233 6.47188 54.0691C6.95671 53.7327 7.53358 53.4091 8.1079 53.1116C9.28349 52.5027 10.8961 51.7738 12.8216 50.9573C16.6969 49.3141 22.1414 47.1902 28.5914 44.7686C41.5065 39.9197 58.6305 33.8083 75.7035 27.8202C92.7825 21.8301 109.834 15.9551 122.615 11.5786C129.006 9.39023 134.33 7.57671 138.056 6.30956C139.919 5.67603 141.383 5.179 142.381 4.84049C142.88 4.67127 143.263 4.54096 143.521 4.45355C143.65 4.40985 143.748 4.3774 143.814 4.35517C143.847 4.34408 143.871 4.33542 143.888 4.32981C143.896 4.327 143.903 4.32436 143.907 4.32294C143.909 4.3224 143.91 4.32208 143.911 4.32176C143.912 4.3214 143.912 4.32133 145.166 8.02617L143.913 4.32166Z" fill="#8DC5FF" stroke="#8DC5FF" stroke-width="7.82238" stroke-linecap="round" stroke-linejoin="round"/>
<path d="M69.4931 96.3906L36.322 117.481L51.5629 86.3344L69.4931 96.3906Z" fill="#8DC5FF" stroke="#3A3B49" stroke-width="1.9556" stroke-linejoin="round"/>
<path d="M36.7837 116.967L34.8262 79.3727L144.716 8.53907L50.9328 87.8357L36.7837 116.967Z" fill="#8DC5FF"/>
<path d="M97.3766 114.791C93.5216 115.971 54.7376 85.6794 49.9824 88.3748L145.668 8.00004C145.668 8.00004 101.232 113.611 97.3766 114.791Z" fill="#8DC5FF"/>
<path d="M36.3215 117.481C36.3215 117.481 44.6475 99.7414 49.9824 88.3748M49.9824 88.3748C54.7376 85.6794 93.5216 115.971 97.3766 114.791C101.232 113.611 145.668 8.00004 145.668 8.00004C145.668 8.00004 87.3498 56.9865 49.9824 88.3748Z" stroke="#3A3B49" stroke-width="1.9556" stroke-linecap="round" stroke-linejoin="round"/>
<path d="M8.23909 57.7478C7.45106 61.4176 33.5956 74.5413 34.0235 79.4146L145.166 8.02614C145.166 8.02614 9.02713 54.078 8.23909 57.7478Z" fill="#8DC5FF"/>
<path d="M36.0065 117.497C35.2321 102.625 34.7979 94.2867 34.0235 79.4146M34.0235 79.4146C33.5956 74.5413 7.45106 61.4176 8.23909 57.7478C9.02713 54.078 145.166 8.02614 145.166 8.02614C145.166 8.02614 77.4275 51.5357 34.0235 79.4146Z" stroke="#3A3B49" stroke-width="1.9556" stroke-linecap="round" stroke-linejoin="round"/>
</svg>
