<svg width="78" height="82" viewBox="0 0 78 82" fill="none" xmlns="http://www.w3.org/2000/svg">
<path d="M6.20447 74.3518L12.56 56.889C12.6062 56.762 12.6729 56.6493 12.7636 56.5491C26.9142 40.9212 55.5425 9.54822 57.9166 7.90569C60.8935 5.84605 62.9111 4.87576 68.5448 9.65722C73.0518 13.4824 71.9756 17.4149 70.8742 18.903L25.2084 67.5857C25.1149 67.6854 25.0028 67.7657 24.8784 67.8222L7.61857 75.6607C6.7755 76.0436 5.8878 75.2219 6.20447 74.3518Z" fill="#FFFFFB" stroke="#FFFFFB" stroke-width="12" stroke-linecap="round"/>
<path d="M57.8409 6.70891C59.3151 5.68898 60.8272 4.72286 62.7902 4.84396C64.7127 4.96304 66.8389 6.10471 69.6853 8.52043C72.1083 10.577 73.1171 12.7455 73.3019 14.6874C73.4834 16.5965 72.859 18.1947 72.1716 19.1235L72.1373 19.1704L72.0976 19.2128L26.4315 67.8953C26.2487 68.0902 26.0289 68.2481 25.7855 68.3587L8.52549 76.1968C6.87581 76.9455 5.13894 75.3382 5.75856 73.6356L12.1143 56.1724C12.2028 55.9293 12.3351 55.7035 12.5161 55.5036C19.5926 47.6883 30.2893 35.9355 39.5145 25.9307C44.1266 20.9288 48.3738 16.3607 51.6174 12.9394C53.2385 11.2294 54.6136 9.80165 55.6591 8.74813C56.1813 8.22202 56.6265 7.78405 56.9814 7.44944C57.3191 7.13117 57.6217 6.86067 57.8409 6.70891ZM7.63799 74.3196C7.63369 74.3314 7.633 74.3383 7.63285 74.3406C7.63281 74.3416 7.63296 74.3428 7.63308 74.3435C7.63395 74.3465 7.63832 74.3568 7.64975 74.3676C7.66087 74.3778 7.67104 74.3823 7.67455 74.3832L7.67747 74.383C7.67944 74.3827 7.6869 74.3815 7.69848 74.3763L13.2949 71.8333L9.66429 68.752L7.63799 74.3196ZM13.9987 56.8461L13.9961 56.8493C13.9955 56.8505 13.9949 56.853 13.9937 56.8563L10.3897 66.7565C10.4275 66.7806 10.464 66.8078 10.4992 66.8377L15.3081 70.919L24.9584 66.5373C24.9635 66.5349 24.9685 66.5314 24.9723 66.5273L25.5553 65.9045L14.3824 56.4218C14.2533 56.5643 14.1255 56.7061 13.9987 56.8461ZM48.8088 18.8502C46.4311 21.3969 43.7755 24.2611 40.9855 27.2869C32.4885 36.502 22.7415 47.2034 15.7279 54.9399L26.9261 64.444L59.9833 29.2019L48.8088 18.8502ZM50.1747 17.3893L61.3512 27.7427L63.0132 25.9723L51.8387 15.6197C51.3054 16.1855 50.7495 16.7759 50.1747 17.3893ZM62.6665 6.84019C61.4688 6.76636 60.481 7.3147 58.9789 8.354C58.901 8.40798 58.7016 8.57599 58.3536 8.90389C58.0217 9.21679 57.5936 9.63756 57.0785 10.1566C56.0793 11.1635 54.7668 12.5261 53.2119 14.165L64.3821 24.5131L70.5879 17.898C70.9952 17.3281 71.4397 16.2338 71.3107 14.8768C71.182 13.5244 70.4744 11.8132 68.3913 10.0451C65.6055 7.68086 63.905 6.91688 62.6665 6.84019Z" fill="#3A3B49"/>
</svg>
