<svg width="174" height="41" viewBox="0 0 174 41" fill="none" xmlns="http://www.w3.org/2000/svg">
<path d="M15.368 18.104C16.3387 18.104 17.1974 17.8987 17.944 17.488C18.6907 17.0773 19.2694 16.5173 19.68 15.808C20.128 15.0613 20.352 14.24 20.352 13.344C20.352 12.4853 20.128 11.7013 19.68 10.992C19.2694 10.2827 18.6907 9.74132 17.944 9.36799C17.1974 8.95732 16.3387 8.75199 15.368 8.75199H4.00005V0.79999H15.368C17.944 0.79999 20.24 1.34132 22.256 2.42399C24.272 3.50666 25.84 4.99999 26.96 6.90399C28.1174 8.80799 28.696 10.9547 28.696 13.344C28.696 15.7707 28.1174 17.9547 26.96 19.896C25.84 21.8 24.272 23.312 22.256 24.432C20.24 25.5147 17.944 26.056 15.368 26.056H4.00005V18.104H15.368ZM8.76005 0.79999V40H0.472046V0.79999H8.76005Z" fill="#3A3B49"/>
<path d="M51.2684 0.23999C55.0018 0.23999 58.3991 1.11732 61.4604 2.87199C64.5218 4.62666 66.9111 7.05332 68.6284 10.152C70.3831 13.2133 71.2604 16.6293 71.2604 20.4C71.2604 24.1707 70.3831 27.6053 68.6284 30.704C66.9111 33.7653 64.5218 36.1733 61.4604 37.928C58.4364 39.6827 55.0391 40.56 51.2684 40.56C47.4978 40.56 44.0818 39.6827 41.0204 37.928C37.9964 36.1733 35.6071 33.7653 33.8524 30.704C32.1351 27.6053 31.2764 24.1707 31.2764 20.4C31.2764 16.6293 32.1351 13.2133 33.8524 10.152C35.6071 7.05332 37.9964 4.62666 41.0204 2.87199C44.0818 1.11732 47.4978 0.23999 51.2684 0.23999ZM51.2684 8.30399C49.1031 8.30399 47.1431 8.84532 45.3884 9.92799C43.6711 10.9733 42.3084 12.4107 41.3004 14.24C40.2924 16.0693 39.7884 18.1227 39.7884 20.4C39.7884 22.64 40.2924 24.6933 41.3004 26.56C42.3084 28.3893 43.6711 29.8453 45.3884 30.928C47.1431 31.9733 49.1031 32.496 51.2684 32.496C53.4338 32.496 55.3751 31.9733 57.0924 30.928C58.8471 29.8453 60.2284 28.3893 61.2364 26.56C62.2444 24.6933 62.7484 22.64 62.7484 20.4C62.7484 18.1227 62.2444 16.0693 61.2364 14.24C60.2284 12.4107 58.8471 10.9733 57.0924 9.92799C55.3751 8.84532 53.4338 8.30399 51.2684 8.30399Z" fill="#3A3B49"/>
<path d="M89.7037 40.56C86.9037 40.56 84.365 39.9813 82.0877 38.824C79.8477 37.6293 78.0743 36.0053 76.7677 33.952C75.4983 31.8987 74.8637 29.584 74.8637 27.008H83.0397C83.0397 28.1653 83.3197 29.1733 83.8797 30.032C84.4397 30.8907 85.2237 31.5627 86.2317 32.048C87.277 32.496 88.4343 32.72 89.7037 32.72C90.8983 32.72 91.9623 32.552 92.8957 32.216C93.8663 31.8427 94.5943 31.3387 95.0797 30.704C95.6023 30.0693 95.8637 29.3227 95.8637 28.464C95.8637 27.5307 95.5463 26.784 94.9117 26.224C94.277 25.6267 93.4743 25.16 92.5037 24.824C91.533 24.488 90.2263 24.1147 88.5837 23.704C85.8957 23.0693 83.6557 22.3973 81.8637 21.688C80.0717 20.9787 78.5223 19.84 77.2157 18.272C75.909 16.6667 75.2557 14.52 75.2557 11.832C75.2557 9.59199 75.8343 7.61332 76.9917 5.89599C78.1863 4.14132 79.8103 2.75999 81.8637 1.75199C83.917 0.74399 86.213 0.23999 88.7517 0.23999C91.8503 0.23999 94.4637 0.837324 96.5917 2.03199C98.7197 3.18932 100.288 4.75732 101.296 6.73599C102.341 8.71466 102.864 10.8987 102.864 13.288H94.2957C94.2957 12.28 94.053 11.384 93.5677 10.6C93.0823 9.81599 92.3917 9.19999 91.4957 8.75199C90.637 8.30399 89.629 8.07999 88.4717 8.07999C87.4263 8.07999 86.5117 8.22932 85.7277 8.52799C84.981 8.82666 84.4023 9.25599 83.9917 9.81599C83.581 10.376 83.3757 11.0293 83.3757 11.776C83.3757 12.6347 83.6743 13.3253 84.2717 13.848C84.869 14.3707 85.6157 14.7813 86.5117 15.08C87.445 15.3787 88.733 15.7147 90.3757 16.088C93.101 16.7227 95.3783 17.4133 97.2077 18.16C99.0743 18.9067 100.68 20.1013 102.024 21.744C103.405 23.3867 104.096 25.6267 104.096 28.464C104.096 30.7413 103.48 32.8133 102.248 34.68C101.016 36.5093 99.2983 37.9467 97.0957 38.992C94.893 40.0373 92.429 40.56 89.7037 40.56Z" fill="#3A3B49"/>
<path d="M116.666 40V0.79999H124.954V40H116.666ZM105.186 8.75199V0.79999H136.378V8.75199H105.186Z" fill="#3A3B49"/>
<path d="M173.736 0.79999V40H165.448V0.79999H173.736ZM140.472 40V0.79999H148.76V40H140.472ZM146.352 23.704V15.752H167.744V23.704H146.352Z" fill="#3A3B49"/>
</svg>
