<svg width="375" height="590" viewBox="0 0 375 590" fill="none" xmlns="http://www.w3.org/2000/svg">
<path d="M-8.86069 321.816C-92.2594 325.847 -118.204 569.896 -122.501 620.277L406 613C418.943 412.592 400 363 312 234C293.753 207.251 287.2 177.636 342 163.74C396.8 149.843 416 163.74 428.5 168L422 143.5C422 143.5 397.5 127 326 127C254.5 127 199 142.5 183.382 198.355C167.765 254.211 95.3877 316.778 -8.86069 321.816Z" fill="#3A3B49"/>
<path d="M391 142.5C280.5 138.5 229.319 162.037 244 234.5C298.5 503.5 186 363 33.5 491.5" stroke="url(#paint0_linear_437_6529)" stroke-opacity="0.6" stroke-width="3" stroke-dasharray="15.04 15.04"/>
<rect x="307.17" y="5" width="9.72" height="136.89" rx="1.62" fill="#D9D9D9" stroke="#D9D9D9" stroke-width="8.748"/>
<rect x="307.17" y="5" width="9.72" height="136.89" rx="1.62" stroke="#54566A" stroke-width="1.458"/>
<path d="M272.975 16.972H327.42C328.315 16.972 329.04 17.6973 329.04 18.592V38.842C329.04 39.7367 328.315 40.462 327.42 40.462H272.975C272.534 40.462 272.113 40.2824 271.807 39.9645L262.078 29.8395C261.476 29.2125 261.476 28.2216 262.078 27.5946L271.807 17.4696C272.113 17.1517 272.534 16.972 272.975 16.972Z" fill="#B1D7FF" stroke="#B1D7FF" stroke-width="8.748"/>
<path d="M343.778 79.3986L289.333 79.3986C288.439 79.3986 287.713 78.6733 287.713 77.7786L287.713 57.5286C287.713 56.6339 288.439 55.9086 289.333 55.9086L343.778 55.9086C344.219 55.9086 344.641 56.0882 344.946 56.4061L354.675 66.5311C355.277 67.1582 355.277 68.149 354.675 68.776L344.946 78.901C344.641 79.2189 344.219 79.3986 343.778 79.3986Z" fill="#B1D7FF" stroke="#B1D7FF" stroke-width="8.748"/>
<path d="M272.975 16.972H327.42C328.315 16.972 329.04 17.6973 329.04 18.592V38.842C329.04 39.7367 328.315 40.462 327.42 40.462H272.975C272.534 40.462 272.113 40.2824 271.807 39.9645L262.078 29.8395C261.476 29.2125 261.476 28.2216 262.078 27.5946L271.807 17.4696C272.113 17.1517 272.534 16.972 272.975 16.972Z" stroke="#3A3B49" stroke-width="1.458"/>
<path d="M343.778 79.3986L289.333 79.3986C288.439 79.3986 287.713 78.6733 287.713 77.7786L287.713 57.5286C287.713 56.6339 288.439 55.9086 289.333 55.9086L343.778 55.9086C344.219 55.9086 344.641 56.0882 344.946 56.4061L354.675 66.5311C355.277 67.1582 355.277 68.149 354.675 68.776L344.946 78.901C344.641 79.2189 344.219 79.3986 343.778 79.3986Z" stroke="#3A3B49" stroke-width="1.458"/>
<path d="M286.764 22.9346L292.663 31.3812V22.9346H294.765V35.4086H292.948L287.032 26.9619V35.4086H284.947V22.9346H286.764ZM304.662 22.9346V24.9304H299.405V27.8707H304.109V29.8665H299.405V33.4127H304.662V35.4086H297.32V22.9346H304.662ZM323.307 22.9346L319.155 35.4086H317.426L314.486 26.3738L311.546 35.4086H309.817L305.647 22.9346H307.857L310.726 31.9693L313.649 22.9346H315.377L318.282 31.9693L321.115 22.9346H323.307Z" fill="#54566A"/>
<path d="M311.239 61.8146L307.087 74.2886H305.359L302.419 65.2538L299.478 74.2886H297.75L293.58 61.8146H295.789L298.659 70.8493L301.581 61.8146H303.31L306.214 70.8493L309.048 61.8146H311.239ZM321.991 74.2886H319.728L316.129 65.0222L312.511 74.2886H310.301L315.255 61.8146H317.002L321.991 74.2886ZM319.425 71.7938H312.796L313.527 69.9227H318.695L319.425 71.7938ZM322.838 61.8146L325.974 66.7685L329.093 61.8146H331.534L327.008 68.8713V74.2886H324.923V68.8713L320.307 61.8146H322.838Z" fill="#54566A"/>
<defs>
<linearGradient id="paint0_linear_437_6529" x1="369" y1="127" x2="212.25" y2="491.5" gradientUnits="userSpaceOnUse">
<stop stop-color="#3A3B49"/>
<stop offset="1" stop-color="#FFFFFB"/>
</linearGradient>
</defs>
</svg>
