<svg viewBox="0 0 118 118" fill="none" xmlns="http://www.w3.org/2000/svg">
<path d="M91.4797 8.31934C94.4621 8.31934 96.8801 10.7374 96.8801 13.7197V48.2793C96.8801 75.1203 75.1206 96.8799 48.2795 96.8799H13.72C12.2878 96.8799 10.9143 96.3105 9.90161 95.2979C8.88899 94.2852 8.31958 92.9116 8.31958 91.4795V13.7197C8.31958 10.7374 10.7376 8.31934 13.72 8.31934H91.4797Z" fill="#8DC5FF" stroke="#8DC5FF" stroke-width="10.8" stroke-linecap="round" stroke-linejoin="round"/>
<mask id="path-2-outside-1_324_5911" maskUnits="userSpaceOnUse" x="38.6404" y="39.6401" width="64" height="63" fill="black">
<rect fill="white" x="38.6404" y="39.6401" width="64" height="63"/>
<path fill-rule="evenodd" clip-rule="evenodd" d="M39.6404 91.4801C39.6404 91.4801 56.9204 91.4801 56.9204 74.2001V58.0001C56.9204 57.4037 57.4039 56.9201 58.0004 56.9201H74.2004C74.2004 56.9201 91.4804 56.9201 91.4804 39.6401"/>
</mask>
<path fill-rule="evenodd" clip-rule="evenodd" d="M39.6404 91.4801C39.6404 91.4801 56.9204 91.4801 56.9204 74.2001V58.0001C56.9204 57.4037 57.4039 56.9201 58.0004 56.9201H74.2004C74.2004 56.9201 91.4804 56.9201 91.4804 39.6401" fill="#8DC5FF"/>
<path d="M39.6404 91.4801C39.6404 102.28 39.6457 102.28 39.6511 102.28C39.653 102.28 39.6585 102.28 39.6623 102.28C39.67 102.28 39.6779 102.28 39.686 102.28C39.7024 102.28 39.72 102.28 39.7386 102.28C39.7759 102.279 39.8178 102.279 39.8641 102.278C39.9567 102.277 40.0671 102.274 40.1942 102.27C40.4482 102.261 40.7707 102.246 41.1523 102.219C41.912 102.165 42.9266 102.061 44.1159 101.863C46.4432 101.475 49.7114 100.679 53.1103 98.98C56.5515 97.2593 60.3212 94.5088 63.2065 90.1809C66.1369 85.7854 67.7204 80.41 67.7204 74.2001H56.9204H46.1204C46.1204 76.6303 45.5439 77.7349 45.2342 78.1994C44.8795 78.7314 44.3293 79.2209 43.4505 79.6603C42.5294 80.1209 41.4776 80.405 40.5649 80.5571C40.1341 80.6289 39.7988 80.6606 39.6134 80.6738C39.5226 80.6803 39.4738 80.6819 39.4746 80.6819C39.4752 80.6819 39.4886 80.6815 39.5158 80.681C39.5294 80.6808 39.5465 80.6806 39.5672 80.6804C39.5776 80.6803 39.5888 80.6803 39.601 80.6802C39.6071 80.6802 39.6134 80.6802 39.62 80.6802C39.6233 80.6802 39.6284 80.6801 39.63 80.6801C39.6352 80.6801 39.6404 80.6801 39.6404 91.4801ZM56.9204 74.2001H67.7204V58.0001H56.9204H46.1204V74.2001H56.9204ZM58.0004 56.9201V67.7201H74.2004V56.9201V46.1201H58.0004V56.9201ZM74.2004 56.9201C74.2004 67.7201 74.2057 67.7201 74.2111 67.7201C74.213 67.7201 74.2185 67.7201 74.2223 67.7201C74.23 67.7201 74.2379 67.7201 74.246 67.72C74.2624 67.72 74.28 67.7199 74.2986 67.7197C74.3359 67.7194 74.3778 67.719 74.4241 67.7182C74.5167 67.7167 74.6271 67.7142 74.7542 67.7099C75.0082 67.7015 75.3307 67.6862 75.7124 67.6589C76.472 67.6047 77.4866 67.5014 78.6759 67.3032C81.0032 66.9153 84.2714 66.1194 87.6703 64.42C91.1115 62.6993 94.8812 59.9488 97.7665 55.6209C100.697 51.2254 102.28 45.85 102.28 39.6401H91.4804H80.6804C80.6804 42.0703 80.1039 43.1749 79.7942 43.6394C79.4395 44.1714 78.8893 44.6609 78.0105 45.1003C77.0894 45.5609 76.0376 45.845 75.1249 45.9971C74.6941 46.0689 74.3588 46.1006 74.1734 46.1138C74.0826 46.1203 74.0338 46.1219 74.0346 46.1219C74.0352 46.1219 74.0486 46.1215 74.0758 46.121C74.0894 46.1208 74.1065 46.1206 74.1272 46.1204C74.1376 46.1203 74.1488 46.1203 74.161 46.1202C74.1671 46.1202 74.1734 46.1202 74.18 46.1202C74.1833 46.1202 74.1884 46.1201 74.19 46.1201C74.1952 46.1201 74.2004 46.1201 74.2004 56.9201ZM56.9204 58.0001H67.7204C67.7204 63.3684 63.3686 67.7201 58.0004 67.7201V56.9201V46.1201C51.4393 46.1201 46.1204 51.439 46.1204 58.0001H56.9204Z" fill="#8DC5FF" mask="url(#path-2-outside-1_324_5911)"/>
<path fill-rule="evenodd" clip-rule="evenodd" d="M89.48 13.7197C90.5845 13.7197 91.48 14.6152 91.48 15.7197V48.2797C91.48 72.1384 72.1387 91.4797 48.28 91.4797H15.72C14.6154 91.4797 13.72 90.5843 13.72 89.4797L13.72 15.7197C13.72 14.6152 14.6154 13.7197 15.72 13.7197L89.48 13.7197Z" stroke="black" stroke-width="2" stroke-linecap="round" stroke-linejoin="round"/>
<path d="M39.6404 91.4801C39.6404 91.4801 56.9204 91.4801 56.9204 74.2001V58.0001C56.9204 57.4037 57.4039 56.9201 58.0004 56.9201H74.2004C74.2004 56.9201 91.4804 56.9201 91.4804 39.6401" stroke="black" stroke-width="2"/>
</svg>
